<svg width="500" height="300" viewBox="0 0 500 300" fill="none" xmlns="http://www.w3.org/2000/svg">
<path d="M500 0H0V300H500V0Z" fill="#28262C"/>
<path d="M403.97 95.4117C435.858 143.162 446.97 203.712 420.581 240.862C394.192 278.012 330.358 291.712 264.358 292.862C198.358 293.962 130.192 282.512 94.1362 240.312C58.0251 198.162 54.0251 125.212 88.0807 76.3617C122.192 27.4617 194.358 2.66167 256.803 7.71167C319.303 12.7117 372.025 47.6617 403.97 95.4117Z" fill="#7BDDBD"/>
<path d="M248.499 177L247.284 147.075L237.924 148.29V141.45L265.779 144.015V144.645L255.564 145.995L254.349 177H248.499ZM284.94 177.9C283.23 177.9 281.43 177.48 279.54 176.64C277.68 175.77 275.925 174.525 274.275 172.905C272.625 171.285 271.29 169.335 270.27 167.055C269.25 164.775 268.74 162.21 268.74 159.36C268.74 157.14 269.07 155.085 269.73 153.195C270.42 151.275 271.335 149.565 272.475 148.065C273.615 146.565 274.89 145.29 276.3 144.24C277.71 143.16 279.15 142.35 280.62 141.81C282.12 141.24 283.56 140.955 284.94 140.955C286.29 140.955 287.7 141.24 289.17 141.81C290.67 142.38 292.11 143.205 293.49 144.285C294.9 145.335 296.175 146.61 297.315 148.11C298.455 149.61 299.355 151.305 300.015 153.195C300.675 155.085 301.005 157.14 301.005 159.36C301.005 162.21 300.495 164.775 299.475 167.055C298.455 169.335 297.135 171.285 295.515 172.905C293.895 174.525 292.155 175.77 290.295 176.64C288.435 177.48 286.65 177.9 284.94 177.9ZM286.74 174.03C288.15 174.03 289.395 173.565 290.475 172.635C291.555 171.705 292.395 170.415 292.995 168.765C293.625 167.085 293.94 165.15 293.94 162.96C293.94 159.93 293.595 157.29 292.905 155.04C292.215 152.76 291.315 150.87 290.205 149.37C289.095 147.87 287.91 146.745 286.65 145.995C285.42 145.245 284.25 144.87 283.14 144.87C281.76 144.87 280.515 145.335 279.405 146.265C278.295 147.165 277.41 148.425 276.75 150.045C276.12 151.665 275.805 153.57 275.805 155.76C275.805 158.97 276.15 161.73 276.84 164.04C277.56 166.35 278.475 168.24 279.585 169.71C280.725 171.18 281.925 172.275 283.185 172.995C284.445 173.685 285.63 174.03 286.74 174.03ZM334.415 141.45H335L336.53 164.85C336.53 164.97 336.53 165.105 336.53 165.255C336.56 165.375 336.575 165.51 336.575 165.66C336.575 168.03 335.945 170.145 334.685 172.005C333.425 173.835 331.715 175.275 329.555 176.325C327.425 177.375 325.04 177.9 322.4 177.9C319.58 177.9 317.18 177.3 315.2 176.1C313.25 174.9 311.75 173.31 310.7 171.33C309.68 169.35 309.125 167.19 309.035 164.85L308.135 141.9H316.46L315.11 164.49C315.11 164.67 315.095 164.85 315.065 165.03C315.065 165.18 315.065 165.33 315.065 165.48C315.065 168.27 315.74 170.49 317.09 172.14C318.44 173.76 320.21 174.57 322.4 174.57C323.6 174.57 324.695 174.135 325.685 173.265C326.705 172.365 327.575 171.135 328.295 169.575C329.045 167.985 329.615 166.17 330.005 164.13L334.415 141.45ZM372.647 177.585L354.107 161.07L354.152 160.44C355.922 160.08 357.512 159.45 358.922 158.55C360.362 157.62 361.562 156.57 362.522 155.4C363.512 154.2 364.202 153.015 364.592 151.845C364.862 151.065 364.997 150.33 364.997 149.64C364.997 148.47 364.592 147.51 363.782 146.76C362.972 146.01 361.727 145.635 360.047 145.635C357.977 145.635 355.802 145.92 353.522 146.49L352.847 177H347.087L345.422 141.9H353.612L353.567 144.375C354.977 143.595 356.402 142.995 357.842 142.575C359.312 142.125 360.722 141.9 362.072 141.9C364.592 141.9 366.602 142.32 368.102 143.16C369.602 143.97 370.682 145.005 371.342 146.265C372.032 147.495 372.377 148.77 372.377 150.09C372.377 150.99 372.242 151.83 371.972 152.61C371.552 153.9 370.817 155.07 369.767 156.12C368.747 157.14 367.562 157.995 366.212 158.685C364.892 159.375 363.587 159.885 362.297 160.215L373.232 177.63L372.647 177.585ZM404.924 167.73C404.744 170.31 404.024 172.35 402.764 173.85C401.504 175.32 399.914 176.37 397.994 177C396.104 177.6 394.064 177.9 391.874 177.9C390.314 177.9 388.619 177.495 386.789 176.685C384.989 175.875 383.234 174.66 381.524 173.04C379.814 171.42 378.314 169.38 377.024 166.92L377.339 166.605C378.539 167.535 379.814 168.375 381.164 169.125C382.544 169.875 383.909 170.52 385.259 171.06C386.609 171.57 387.854 171.96 388.994 172.23C390.164 172.5 391.109 172.635 391.829 172.635C393.239 172.635 394.424 172.305 395.384 171.645C396.374 170.985 396.944 169.89 397.094 168.36V168.225C397.094 167.565 396.659 166.875 395.789 166.155C394.919 165.405 393.779 164.61 392.369 163.77C390.989 162.93 389.519 162.045 387.959 161.115C386.429 160.185 384.974 159.225 383.594 158.235C382.214 157.215 381.074 156.165 380.174 155.085C379.304 154.005 378.869 152.88 378.869 151.71C378.869 151.56 378.869 151.44 378.869 151.35C378.869 151.23 378.884 151.11 378.914 150.99C379.274 148.98 380.069 147.225 381.299 145.725C382.559 144.225 384.059 143.055 385.799 142.215C387.569 141.375 389.399 140.955 391.289 140.955C393.209 140.955 395.264 141.255 397.454 141.855C399.674 142.425 401.939 143.25 404.249 144.33L401.729 151.665C399.389 149.385 397.379 147.705 395.699 146.625C394.019 145.545 392.429 145.005 390.929 145.005C389.309 145.005 388.064 145.41 387.194 146.22C386.354 147 385.874 148.32 385.754 150.18V150.315C385.754 151.005 386.099 151.695 386.789 152.385C387.479 153.075 388.394 153.78 389.534 154.5C390.674 155.19 391.919 155.91 393.269 156.66C394.649 157.38 396.014 158.145 397.364 158.955C398.744 159.735 400.004 160.575 401.144 161.475C402.284 162.345 403.199 163.275 403.889 164.265C404.579 165.225 404.924 166.26 404.924 167.37V167.73Z" fill="#28262C"/>
<path d="M118.429 83.8H130.389L129.219 122.865C129.132 126.245 128.677 128.888 127.854 130.795C127.074 132.658 126.077 133.958 124.864 134.695C123.694 135.432 122.459 135.8 121.159 135.8C119.642 135.8 117.844 135.323 115.764 134.37C113.727 133.373 111.691 132.073 109.654 130.47C107.661 128.867 105.927 127.133 104.454 125.27L104.779 124.62C106.556 125.443 108.354 126.115 110.174 126.635C111.994 127.155 113.662 127.545 115.179 127.805C116.739 128.022 117.909 128.13 118.689 128.13C119.426 128.13 119.989 127.827 120.379 127.22C120.769 126.613 120.964 125.378 120.964 123.515C120.964 123.168 120.964 122.8 120.964 122.41C120.964 122.02 120.942 121.608 120.899 121.175L118.429 83.8ZM146.031 135.15L143.626 83.8H155.456L155.326 88.74L178.726 83.15V93.68L155.261 91.405L154.871 107.85L175.411 103.04V113.375L154.806 110.45L154.416 126.115L180.026 128.845V129.495L146.031 135.15ZM231.536 134.5L229.651 96.475L215.156 129.56H214.701L200.141 96.475L194.226 135.41H193.251L189.676 83.8H201.636L217.431 110.06L229.521 83.8H240.116L239.141 134.5H231.536ZM294.598 134.5L292.713 96.475L278.218 129.56H277.763L263.203 96.475L257.288 135.41H256.313L252.738 83.8H264.698L280.493 110.06L292.583 83.8H303.178L302.203 134.5H294.598Z" fill="#28262C"/>
<path d="M215.622 250.525C216.081 251.573 217.46 252.301 217.307 253.641C216.043 253.35 215.009 252.971 214.472 252.01C213.974 251.107 213.285 250.263 212.749 249.389C211.868 247.933 211.408 246.302 210.221 244.934C209.263 243.827 209.148 242.633 208.995 241.381C208.956 241.148 208.88 240.827 209.263 240.769C209.608 240.711 210.029 241.089 210.489 241.643C211.408 242.808 212.366 244.73 212.634 245.137C213.783 246.914 214.817 248.69 215.622 250.525ZM385.889 250.874C385.659 250.467 385.468 250.03 385.353 249.593C383.169 248.341 381.024 247.089 378.611 246.069C377.462 245.574 376.389 244.992 375.393 244.351C375.393 244.235 375.355 244.118 375.202 244.002C374.053 243.011 372.865 242.05 371.716 241.06C370.873 239.983 369.686 239.08 368.383 238.352C366.315 237.187 364.4 235.964 362.676 234.566C360.416 232.731 357.735 231.974 354.479 232.236C352.717 232.382 351.414 231.741 350.686 230.605C349.652 229.004 347.775 227.81 345.898 226.82C344.174 225.917 341.608 225.072 340.421 223.762C339.923 223.237 339.233 222.801 338.85 222.189C337.663 220.383 335.556 219.568 333.219 218.84C332.223 218.549 331.495 217.966 330.883 217.355C330.193 216.685 329.465 216.132 328.699 215.491C327.971 214.909 327.741 214.006 327.052 213.336C326.248 212.55 325.252 211.88 324.217 211.268C322.57 210.278 320.923 209.288 319.544 208.094C318.548 207.22 317.667 206.667 316.212 207.337C315.024 207.89 313.875 208.502 312.841 209.201C312.381 209.521 311.921 209.841 311.538 210.191C311.194 210.511 310.925 211.152 310.504 211.414C308.397 212.753 305.831 213.685 303.724 215.025C303.034 215.462 302.23 215.316 301.77 214.676C300.391 212.812 298.438 211.326 296.523 209.812C296.101 209.463 295.603 209.171 295.105 208.938C293.496 208.24 292.232 207.249 290.164 207.453C290.087 207.395 290.049 207.366 289.972 207.308C287.368 205.531 285.184 203.463 282.809 201.541C282.235 201.075 281.852 200.464 281.315 199.969C280.358 199.066 278.979 198.629 277.638 198.134C275.11 197.26 272.888 195.95 270.666 194.698C267.372 192.863 264.461 190.795 262.507 188C261.588 186.718 260.247 186.689 258.753 187.796C256.149 189.718 253.774 191.815 251.514 193.97C250.173 195.251 248.641 196.358 246.917 197.319C246.534 197.523 246.189 197.756 245.806 197.988C243.814 198.746 242.129 199.823 240.788 201.221C240.712 201.308 240.673 201.396 240.673 201.483C239.026 202.59 237.532 203.696 236.307 205.036C234.315 207.191 232.284 209.346 230.446 211.559C228.492 213.918 225.658 215.637 223.129 217.559C221.444 218.84 219.529 220.005 217.422 220.937C216.158 221.49 214.97 221.403 213.745 220.733C213.208 220.442 212.634 220.121 212.059 219.859C212.059 219.714 211.983 219.568 211.753 219.452C210.067 218.578 208.114 217.704 206.543 216.656C204.896 215.52 203.249 214.384 201.602 213.249C200.491 212.491 199.035 210.977 197.312 211.152C196.622 211.239 195.052 211.589 194.707 212.113C194.4 212.579 194.247 213.074 193.941 213.54C193.251 214.588 192.332 215.491 191.106 216.161C188.233 217.821 185.935 219.976 183.33 221.84C180.496 223.849 177.01 225.101 173.907 226.878C173.218 226.994 172.758 227.635 172.03 227.722C170.574 227.897 169.195 228.421 167.931 229.062C165.825 230.169 165.327 232.149 163.565 233.459C163.067 233.809 162.645 234.217 162.109 234.537C161.688 234.799 161.075 234.974 160.692 235.265C159.811 235.818 158.93 236.342 158.01 236.867C156.287 237.886 154.563 238.643 152.648 239.4C149.085 240.856 145.791 242.487 143.684 245.225C142.343 246.972 140.62 248.516 139.126 250.176C137.9 251.515 136.866 252.971 135.333 254.253C135.64 254.369 135.755 254.457 135.831 254.427C138.628 253.641 141.501 253.903 144.335 254.02C146.825 254.107 148.587 253.175 150.464 252.01C152.111 250.991 154.218 250.088 156.057 249.331C156.785 249.011 157.78 248.865 158.47 248.516C159.121 248.195 159.504 247.555 160.117 247.176C161.458 246.361 162.3 245.283 163.143 244.147C163.526 243.594 164.331 243.332 165.173 243.215C167.089 242.982 168.314 242.109 169.157 240.798C170.115 239.342 171.724 238.265 173.409 237.304C174.099 236.896 174.865 236.284 175.669 236.08C176.818 235.789 178.312 235.906 179.5 235.76C182.564 235.411 185.131 234.042 187.314 232.411C189.651 230.635 191.911 228.858 193.29 226.47C193.558 225.975 194.477 225.393 195.281 224.927C197.388 223.762 199.38 222.48 198.959 220.121C198.844 219.452 199.112 218.782 199.303 218.112C199.878 217.995 200.376 217.733 200.491 217.238C200.491 217.209 200.491 217.18 200.491 217.151C200.912 216.743 201.219 216.889 202.33 217.442C202.368 217.471 202.406 217.471 202.445 217.5C203.211 218.112 204.092 218.607 205.011 219.044C208.497 221.286 212.059 223.412 216.311 224.839C218.801 225.684 220.525 227.14 220.908 229.324C221.099 230.518 221.942 231.566 222.708 232.586C223.129 233.168 223.206 234.391 224.24 234.537C224.508 234.566 224.853 234.595 225.045 234.741C225.198 234.857 225.236 235.032 225.275 235.207C225.619 236.43 226.922 237.012 228.147 237.74C232.055 240.041 234.813 243.769 239.409 245.341C241.708 246.128 243.623 247.409 245.538 248.661C248.871 250.816 252.356 253.292 256.417 254.602C256.991 254.777 257.796 255.272 258.217 254.748C258.6 254.282 258.064 253.699 257.528 253.292C256.608 252.622 255.689 251.952 254.731 251.34C253.889 250.816 253.544 250.117 253.276 249.331C252.969 248.399 253.352 247.846 254.157 247.118C255.153 246.244 255.536 245.225 255.995 244.118C256.264 243.419 256.8 242.808 257.643 242.4C258.562 241.963 259.673 241.934 260.554 241.468C262.699 240.332 263.886 237.624 264.04 235.731C264.193 233.751 264.461 231.77 264.576 229.79C264.614 229.237 264.882 228.654 265.572 228.392C266.031 228.188 266.606 228.13 267.104 228.043C268.904 227.693 268.215 226.412 268.521 225.451C268.368 225.888 269.556 225.509 269.632 225.451C270.552 225.043 271.356 224.111 272.505 224.053C273.578 223.995 274.267 224.839 274.842 225.422C275.838 226.441 276.91 227.402 278.289 228.159C281.239 229.819 283.499 231.916 284.456 234.653C284.648 235.178 285.146 236.08 285.452 236.575C286.678 238.498 287.636 240.507 289.015 242.371C289.206 242.662 290.93 244.817 291.888 244.875C292.194 244.904 292.386 244.846 292.386 244.555C292.309 243.477 291.198 242.837 290.509 241.992C290.355 241.788 290.164 241.002 289.857 240.303C288.785 237.682 287.483 235.148 285.759 232.702C285.299 232.062 285.222 231.188 284.725 230.489C283.843 229.237 282.311 228.363 281.047 227.373C278.557 225.393 276.489 223.354 277.025 220.384C277.523 220.267 277.753 220.616 278.098 220.82C280.434 222.073 282.886 223.267 285.491 224.169C286.716 224.577 287.789 224.868 288.9 225.48C290.509 226.383 291.773 227.548 293.343 228.479C294.799 229.324 296.331 230.11 297.289 231.333C298.131 232.44 299.549 233.226 300.66 234.158C301.656 235.003 302 236.11 302.537 237.129C302.805 237.653 303.111 238.148 303.609 238.585C304.988 239.866 304.873 241.614 305.639 243.099C306.061 243.943 306.137 244.992 306.903 245.749C307.669 246.506 308.321 247.38 308.819 248.253C309.317 249.127 309.508 250.205 310.504 250.816C310.925 251.078 311.385 251.311 311.806 251.573C312.075 252.127 312.573 252.651 313.147 253.204C313.415 251.02 311.998 249.069 310.772 247.205C309.125 244.701 308.857 241.934 308.244 239.196C309.048 239.196 309.585 239.488 310.044 239.779C312.764 241.352 315.714 242.749 317.476 245.079C317.859 245.574 318.548 245.836 319.199 246.04C320.732 246.506 321.957 247.176 322.838 248.253C323.413 248.952 324.141 249.331 325.098 249.593C326.248 249.913 327.32 250.379 328.469 250.729C329.887 251.137 331.304 251.166 332.683 250.671C333.143 250.525 332.989 249.972 332.338 249.768C331.304 249.418 330.308 249.011 329.235 248.749C327.741 248.37 326.516 247.7 325.635 246.826C324.256 245.4 322.417 244.438 320.578 243.448C318.472 242.313 316.71 240.886 315.637 239.109C314.794 237.74 313.492 237.041 311.73 236.605C310.581 236.313 309.393 236.051 308.397 235.556C303.877 232.469 300.391 228.596 295.68 225.626C293.113 223.995 290.394 222.335 287.176 221.257C284.686 220.442 282.158 219.626 280.434 217.879C280.396 217.85 280.358 217.821 280.319 217.792C280.281 217.762 280.281 217.733 280.243 217.704C280.013 217.471 279.745 217.267 279.477 217.122C279.438 217.093 279.438 217.093 279.4 217.064C278.404 216.306 277.217 215.695 275.838 215.374C274.382 214.996 272.16 215.87 271.279 217.122C271.203 217.238 271.203 217.413 271.088 217.5C269.402 218.694 268.292 220.238 266.759 221.548C264.959 223.063 262.776 223.325 260.516 224.257C258.868 224.956 257.949 226.47 256.685 227.518C255.153 228.829 253.774 230.227 253.161 231.945C252.969 232.557 252.395 233.023 251.782 233.43C250.671 234.246 249.407 234.857 248.028 235.381C247.53 235.556 246.994 235.76 246.687 236.08C245.155 237.566 242.742 238.002 240.827 239.051C240.022 239.488 239.371 239.429 238.605 238.789C237.532 237.886 236.115 237.274 235.502 236.022C235.157 235.352 234.966 234.974 235.157 234.741C236.46 234.537 237.685 234.246 238.911 233.809C239.448 233.634 239.294 233.168 238.911 232.964C240.712 230.664 242.474 228.509 243.163 226.004C243.853 223.5 243.661 220.879 244.504 218.374C244.925 217.093 245.538 215.957 247.07 215.083C248.488 214.297 249.254 212.986 250.288 211.909C250.633 211.559 250.633 211.094 250.594 210.628C250.403 208.618 250.671 206.259 252.969 204.978C254.425 204.133 255.574 202.998 256.225 201.687C256.915 200.318 256.723 198.862 258.064 197.697C259.29 196.649 260.286 195.513 260.63 194.115C260.784 193.533 261.358 193.125 261.933 192.863C263.197 192.281 265.534 194.727 266.338 195.251C268.981 196.998 271.892 198.571 274.765 200.085C275.876 200.668 277.14 201.134 278.328 201.658C280.051 202.386 281.086 203.842 282.35 204.949C282.924 205.473 282.886 205.852 281.928 205.822C279.438 205.735 277.446 206.783 275.263 207.482C274.65 207.686 274.037 207.919 273.769 208.618C275.033 208.502 276.182 208.443 277.332 208.298C278.711 208.094 280.013 208.473 281.315 208.764C282.733 209.084 284.15 209.084 285.606 209.201C288.708 209.463 292.271 210.016 294.377 211.851C296.523 213.715 298.361 215.753 300.047 217.85C301.502 219.626 303.073 221.374 304.605 223.092C304.835 223.354 305.18 223.791 305.639 223.616C306.099 223.441 305.831 223.005 305.754 222.684C305.678 222.306 305.524 221.956 305.601 221.49C307.938 221.869 309.891 222.742 311.385 223.995C315.062 227.111 318.357 230.46 321.728 233.751C322.57 234.566 322.953 235.44 323.336 236.342C323.758 237.304 324.294 238.206 325.213 238.963C326.592 240.099 327.32 241.526 328.431 242.779C328.699 243.07 328.852 243.39 329.465 243.39C329.733 242.924 329.657 242.313 329.389 242.021C328.086 240.594 328.086 238.876 327.473 237.304C327.244 236.692 327.167 236.313 327.358 236.051C327.971 236.11 328.584 236.139 329.235 236.197C331.304 236.954 333.257 237.886 335.441 238.498C336.973 238.905 338.314 239.517 339.425 240.42C340.727 241.468 342.259 242.254 343.83 242.982C344.251 243.186 344.366 243.769 344.596 244.176C345.324 245.487 345.592 246.885 345.898 248.283C346.09 249.156 346.396 250.001 347.43 250.962C347.086 248.836 346.511 246.943 346.473 244.875C348.541 245.749 350.725 246.128 352.104 247.642C352.755 248.341 353.981 248.661 354.938 249.127C356.202 249.71 357.543 250.146 358.845 250.554C360.301 251.02 361.833 251.311 363.557 251.34C363.327 250.7 362.599 250.525 362.063 250.292C357.658 248.545 353.866 246.186 350.342 243.536C349.269 242.72 348.273 241.817 347.239 240.944C345.324 239.342 343.562 237.624 341.187 236.342C339.118 235.207 337.701 233.576 335.977 232.178C333.87 230.46 331.227 229.208 329.006 227.606C326.286 225.626 323.03 224.257 319.851 222.742C318.05 221.869 317.591 220.296 317.054 218.84C316.595 217.617 316.595 216.365 317.093 215.171C317.629 213.889 317.782 212.608 317.782 211.297C317.782 210.89 317.82 210.511 318.28 210.336C318.74 210.162 319.084 210.54 319.467 210.744C322.302 212.258 323.873 214.559 325.865 216.627C326.554 217.355 327.205 218.083 327.358 219.015C327.473 219.597 328.048 219.947 328.737 220.209C330.078 220.733 331.38 221.257 332.721 221.752C334.024 222.247 335.058 222.888 335.824 223.849C337.777 226.499 340.382 228.567 344.328 229.673C346.205 230.198 347.775 231.421 349.078 232.673C349.461 233.052 349.614 233.547 349.116 233.896C348.35 234.42 348.35 235.265 347.584 235.789C347.086 236.11 347.469 236.634 348.082 236.546C348.503 236.488 349.001 235.993 349.307 235.789C350.725 234.857 351.759 234.391 353.674 234.333C355.513 234.304 357.122 234.741 358.807 235.294C363.404 236.867 366.545 239.662 369.801 242.4C371.41 243.769 372.942 245.254 375.24 246.069C375.968 246.331 376.274 246.826 376.466 247.38C376.811 248.283 377.538 249.011 378.305 249.768C378.573 249.68 378.879 249.622 379.186 249.564C378.994 248.778 378.228 248.166 378.19 247.409C378.726 247.38 379.032 247.671 379.339 247.846C381.561 248.982 383.552 250.117 385.889 250.874ZM239.103 251.573C238.758 250.962 238.375 250.409 237.532 249.913C237.188 249.389 236.613 248.923 235.77 248.545C232.361 246.943 228.76 245.632 225.313 244.118C224.01 243.536 223.015 242.633 222.019 241.788C220.946 240.886 219.797 240.274 218.456 239.633C214.97 237.944 211.523 236.022 208.497 233.867C208.382 233.256 207.654 232.79 206.888 232.673C206.85 232.673 206.85 232.673 206.811 232.673C206.122 231.654 204.819 230.78 203.479 230.635C202.598 230.547 201.87 230.868 201.257 231.275C199.801 232.236 198.384 233.314 196.852 234.217C195.281 235.148 193.596 236.226 191.872 236.954C190.225 237.653 188.157 237.449 186.395 237.42C184.901 237.391 183.752 237.799 182.756 238.614C181.223 239.866 179.002 240.536 177.584 241.817C177.469 241.934 176.129 241.934 175.861 241.963C175.248 242.08 174.635 242.225 174.099 242.458C172.988 242.895 172.183 243.565 171.226 244.176C168.927 245.632 166.782 247.234 164.637 248.836C164.177 249.185 163.641 249.098 163.335 249.36C161.036 251.137 158.01 252.505 156.976 255.097C156.861 255.388 156.516 255.621 156.746 256C158.623 254.748 160.538 253.525 162.377 252.243C163.143 251.719 164.331 251.632 165.097 251.107C165.365 250.933 166.935 249.651 167.357 250.176C167.663 250.554 167.51 251.224 167.089 251.748C166.169 252.855 165.327 253.961 164.216 254.981C166.437 254.253 167.893 252.971 169.081 251.457C170.345 249.797 171.953 248.399 174.137 247.351C176.857 246.04 179.883 245.196 182.602 243.914C183.407 243.536 184.058 242.982 184.939 242.72C185.399 242.779 186.05 242.866 186.509 242.779C186.624 242.837 186.739 242.924 186.854 242.982C186.663 243.361 186.318 243.74 185.973 244.06C184.326 245.574 182.717 247.118 180.955 248.574C180.84 248.69 180.725 248.778 180.649 248.894C179.883 249.302 179.231 249.768 178.695 250.35C176.971 251.544 175.018 252.534 173.562 253.961C172.605 254.893 172.834 255.592 174.367 255.825C176.742 256.175 179.002 255.884 180.955 254.748C182.564 253.845 184.288 253.408 186.28 253.379C188.118 253.35 189.689 252.855 191.106 251.923C192.332 251.107 194.017 250.729 195.09 249.739C196.469 248.486 197.924 247.263 198.461 245.662C198.691 244.963 199.342 244.526 199.878 244.002C200.491 243.419 201.87 243.244 202.674 242.895C203.862 242.342 204.092 241.381 204.283 240.42C204.513 239.051 205.471 238.148 206.658 237.274C207.463 236.692 208.267 236.663 208.995 237.362C210.833 239.196 213.438 240.158 216.043 241.148C217.575 241.73 219.031 242.429 220.142 243.594C221.329 244.817 222.402 246.098 223.513 247.38C224.279 248.283 224.815 249.797 225.964 250.409C227.726 251.34 228.875 252.127 230.024 253.525C230.599 254.253 231.288 254.922 232.399 255.68C232.093 253.088 231.442 250.874 228.875 249.331C227.841 248.69 227.573 247.846 227.305 246.797C230.139 247.525 232.399 248.69 234.506 250.059C235.617 250.787 236.728 251.661 237.992 252.272C238.26 253.146 239.677 253.088 240.252 253.758C239.984 253.466 239.946 252.855 239.754 252.505C239.409 252.156 239.256 251.836 239.103 251.573Z" fill="#28262C"/>
<path d="M329.222 261.36C329.222 264.004 327.294 266.253 324.681 266.657L324.556 266.676C319.889 267.38 310.556 268.822 301.378 269.303C292.122 269.783 283.1 269.337 273.844 268.496C264.667 267.672 255.333 266.47 246 266.127C236.667 265.784 227.333 266.299 218 266.865C208.667 267.449 199.333 268.067 190.155 268.65C180.9 269.217 171.878 269.732 162.622 269.182C153.444 268.65 144.111 267.037 139.444 266.247L139.03 266.176C136.573 265.751 134.778 263.619 134.778 261.125V260.667C134.778 258.089 136.867 256 139.444 256V256C144.111 256 153.444 256 162.622 256C171.878 256 180.9 256 190.155 256C199.333 256 208.667 256 218 256C227.333 256 236.667 256 246 256C255.333 256 264.667 256 273.844 256C283.1 256 292.122 256 301.378 256C310.556 256 319.889 256 324.556 256V256C327.133 256 329.222 258.089 329.222 260.667V261.36Z" fill="#F8A87D"/>
<path d="M258.325 273C254.743 273 250.508 270.589 254 269.791V269.791C258.097 268.871 267.688 268.143 276.161 267.674C284.727 267.206 292.176 266.98 293.945 266.234C295.714 265.471 291.897 264.17 292.921 263.337C293.852 262.522 299.811 262.175 303.908 261.759C308.005 261.325 310.24 260.822 310.705 259.503C311.264 258.168 309.96 256.051 314.616 255.93C319.365 255.808 329.979 257.699 334.914 257.214C339.849 256.745 339.104 253.917 342.363 253.189C345.622 252.478 352.885 253.865 358.751 253.761C359.456 253.751 360.141 253.719 360.809 253.667C367.222 253.173 373.556 257.246 373.556 263.678V263.678C373.556 268.827 369.382 273 364.234 273H258.325Z" fill="#77BFF7"/>
<path d="M414.667 243.549L409.307 243.524V247.445H406.752V243.549H402.638L404.509 245.204L396.742 245.165V249.5H393.035V245.204H385.344L387.027 243.892L383.09 243.873V247.095H380.534V243.899H375.222L378.616 241.254H376.898L379.507 238.958L378.079 238.903L379.95 237.194L379.017 237.169L380.634 235.886H379.855L381.821 234.097L383.887 235.886H383.196L384.571 237.169L383.639 237.194L385.557 238.929L384.329 238.955L386.643 241.145L385.415 241.199L387.794 243.302L390.273 241.372H387.782L391.559 238.044L389.494 237.967L392.203 235.489L390.851 235.45L393.106 233.594L392.061 233.639L394.888 231L397.881 233.594H396.883L398.878 235.45L397.527 235.489L400.307 238.006L398.524 238.044L401.871 241.218L400.088 241.295L402.077 243.055L404.834 240.907H403.11L405.713 238.612L404.285 238.557L406.156 236.848L405.223 236.823L406.775 235.562H406.185L408.027 233.751L410.092 235.54H409.408L410.783 236.823L409.85 236.848L411.769 238.583L410.541 238.608L412.855 240.798L411.627 240.853L414.667 243.549Z" fill="#28262C"/>
</svg>
