<svg width="371" height="286" viewBox="0 0 371 286" fill="none" xmlns="http://www.w3.org/2000/svg">
<path d="M339.308 88.3443C371.197 136.094 382.308 196.644 355.92 233.794C329.531 270.944 265.697 284.644 199.697 285.794C133.697 286.894 65.5307 275.444 29.4751 233.244C-6.636 191.094 -10.636 118.144 23.4195 69.2943C57.5307 20.3943 129.697 -4.40571 192.142 0.64429C254.642 5.64429 307.364 40.5943 339.308 88.3443Z" fill="#7BDDBD"/>
<path d="M178.838 161.933L177.623 132.008L168.263 133.223V126.383L196.118 128.948V129.578L185.903 130.928L184.688 161.933H178.838ZM215.279 162.833C213.569 162.833 211.769 162.413 209.879 161.573C208.019 160.703 206.264 159.458 204.614 157.838C202.964 156.218 201.629 154.268 200.609 151.988C199.589 149.708 199.079 147.143 199.079 144.293C199.079 142.073 199.409 140.018 200.069 138.128C200.759 136.208 201.674 134.498 202.814 132.998C203.954 131.498 205.229 130.223 206.639 129.173C208.049 128.093 209.489 127.283 210.959 126.743C212.459 126.173 213.899 125.888 215.279 125.888C216.629 125.888 218.039 126.173 219.509 126.743C221.009 127.313 222.449 128.138 223.829 129.218C225.239 130.268 226.514 131.543 227.654 133.043C228.794 134.543 229.694 136.238 230.354 138.128C231.014 140.018 231.344 142.073 231.344 144.293C231.344 147.143 230.834 149.708 229.814 151.988C228.794 154.268 227.474 156.218 225.854 157.838C224.234 159.458 222.494 160.703 220.634 161.573C218.774 162.413 216.989 162.833 215.279 162.833ZM217.079 158.963C218.489 158.963 219.734 158.498 220.814 157.568C221.894 156.638 222.734 155.348 223.334 153.698C223.964 152.018 224.279 150.083 224.279 147.893C224.279 144.863 223.934 142.223 223.244 139.973C222.554 137.693 221.654 135.803 220.544 134.303C219.434 132.803 218.249 131.678 216.989 130.928C215.759 130.178 214.589 129.803 213.479 129.803C212.099 129.803 210.854 130.268 209.744 131.198C208.634 132.098 207.749 133.358 207.089 134.978C206.459 136.598 206.144 138.503 206.144 140.693C206.144 143.903 206.489 146.663 207.179 148.973C207.899 151.283 208.814 153.173 209.924 154.643C211.064 156.113 212.264 157.208 213.524 157.928C214.784 158.618 215.969 158.963 217.079 158.963ZM264.754 126.383H265.339L266.869 149.783C266.869 149.903 266.869 150.038 266.869 150.188C266.899 150.308 266.914 150.443 266.914 150.593C266.914 152.963 266.284 155.078 265.024 156.938C263.764 158.768 262.054 160.208 259.894 161.258C257.764 162.308 255.379 162.833 252.739 162.833C249.919 162.833 247.519 162.233 245.539 161.033C243.589 159.833 242.089 158.243 241.039 156.263C240.019 154.283 239.464 152.123 239.374 149.783L238.474 126.833H246.799L245.449 149.423C245.449 149.603 245.434 149.783 245.404 149.963C245.404 150.113 245.404 150.263 245.404 150.413C245.404 153.203 246.079 155.423 247.429 157.073C248.779 158.693 250.549 159.503 252.739 159.503C253.939 159.503 255.034 159.068 256.024 158.198C257.044 157.298 257.914 156.068 258.634 154.508C259.384 152.918 259.954 151.103 260.344 149.063L264.754 126.383ZM302.985 162.518L284.445 146.003L284.49 145.373C286.26 145.013 287.85 144.383 289.26 143.483C290.7 142.553 291.9 141.503 292.86 140.333C293.85 139.133 294.54 137.948 294.93 136.778C295.2 135.998 295.335 135.263 295.335 134.573C295.335 133.403 294.93 132.443 294.12 131.693C293.31 130.943 292.065 130.568 290.385 130.568C288.315 130.568 286.14 130.853 283.86 131.423L283.185 161.933H277.425L275.76 126.833H283.95L283.905 129.308C285.315 128.528 286.74 127.928 288.18 127.508C289.65 127.058 291.06 126.833 292.41 126.833C294.93 126.833 296.94 127.253 298.44 128.093C299.94 128.903 301.02 129.938 301.68 131.198C302.37 132.428 302.715 133.703 302.715 135.023C302.715 135.923 302.58 136.763 302.31 137.543C301.89 138.833 301.155 140.003 300.105 141.053C299.085 142.073 297.9 142.928 296.55 143.618C295.23 144.308 293.925 144.818 292.635 145.148L303.57 162.563L302.985 162.518ZM335.263 152.663C335.083 155.243 334.363 157.283 333.103 158.783C331.843 160.253 330.253 161.303 328.333 161.933C326.443 162.533 324.403 162.833 322.213 162.833C320.653 162.833 318.958 162.428 317.128 161.618C315.328 160.808 313.573 159.593 311.863 157.973C310.153 156.353 308.653 154.313 307.363 151.853L307.678 151.538C308.878 152.468 310.153 153.308 311.503 154.058C312.883 154.808 314.248 155.453 315.598 155.993C316.948 156.503 318.193 156.893 319.333 157.163C320.503 157.433 321.448 157.568 322.168 157.568C323.578 157.568 324.763 157.238 325.723 156.578C326.713 155.918 327.283 154.823 327.433 153.293V153.158C327.433 152.498 326.998 151.808 326.128 151.088C325.258 150.338 324.118 149.543 322.708 148.703C321.328 147.863 319.858 146.978 318.298 146.048C316.768 145.118 315.313 144.158 313.933 143.168C312.553 142.148 311.413 141.098 310.513 140.018C309.643 138.938 309.208 137.813 309.208 136.643C309.208 136.493 309.208 136.373 309.208 136.283C309.208 136.163 309.223 136.043 309.253 135.923C309.613 133.913 310.408 132.158 311.638 130.658C312.898 129.158 314.398 127.988 316.138 127.148C317.908 126.308 319.738 125.888 321.628 125.888C323.548 125.888 325.603 126.188 327.793 126.788C330.013 127.358 332.278 128.183 334.588 129.263L332.068 136.598C329.728 134.318 327.718 132.638 326.038 131.558C324.358 130.478 322.768 129.938 321.268 129.938C319.648 129.938 318.403 130.343 317.533 131.153C316.693 131.933 316.213 133.253 316.093 135.113V135.248C316.093 135.938 316.438 136.628 317.128 137.318C317.818 138.008 318.733 138.713 319.873 139.433C321.013 140.123 322.258 140.843 323.608 141.593C324.988 142.313 326.353 143.078 327.703 143.888C329.083 144.668 330.343 145.508 331.483 146.408C332.623 147.278 333.538 148.208 334.228 149.198C334.918 150.158 335.263 151.193 335.263 152.303V152.663Z" fill="#28262C"/>
<path d="M45.429 67.3H57.389L56.219 106.365C56.1323 109.745 55.6773 112.388 54.854 114.295C54.074 116.158 53.0773 117.458 51.864 118.195C50.694 118.932 49.459 119.3 48.159 119.3C46.6423 119.3 44.844 118.823 42.764 117.87C40.7273 116.873 38.6907 115.573 36.654 113.97C34.6607 112.367 32.9273 110.633 31.454 108.77L31.779 108.12C33.5557 108.943 35.354 109.615 37.174 110.135C38.994 110.655 40.6623 111.045 42.179 111.305C43.739 111.522 44.909 111.63 45.689 111.63C46.4257 111.63 46.989 111.327 47.379 110.72C47.769 110.113 47.964 108.878 47.964 107.015C47.964 106.668 47.964 106.3 47.964 105.91C47.964 105.52 47.9423 105.108 47.899 104.675L45.429 67.3ZM73.0312 118.65L70.6262 67.3H82.4562L82.3262 72.24L105.726 66.65V77.18L82.2612 74.905L81.8712 91.35L102.411 86.54V96.875L81.8062 93.95L81.4162 109.615L107.026 112.345V112.995L73.0312 118.65ZM158.536 118L156.651 79.975L142.156 113.06H141.701L127.141 79.975L121.226 118.91H120.251L116.676 67.3H128.636L144.431 93.56L156.521 67.3H167.116L166.141 118H158.536ZM221.598 118L219.713 79.975L205.218 113.06H204.763L190.203 79.975L184.288 118.91H183.313L179.738 67.3H191.698L207.493 93.56L219.583 67.3H230.178L229.203 118H221.598Z" fill="#28262C"/>
<path d="M124.288 241.525C124.748 242.573 126.127 243.301 125.974 244.641C124.709 244.35 123.675 243.971 123.139 243.01C122.641 242.107 121.951 241.263 121.415 240.389C120.534 238.933 120.075 237.302 118.887 235.934C117.929 234.827 117.814 233.633 117.661 232.381C117.623 232.148 117.546 231.827 117.929 231.769C118.274 231.711 118.696 232.089 119.155 232.643C120.075 233.808 121.032 235.73 121.3 236.137C122.449 237.914 123.484 239.69 124.288 241.525ZM294.556 241.874C294.326 241.467 294.134 241.03 294.019 240.593C291.836 239.341 289.691 238.089 287.278 237.069C286.128 236.574 285.056 235.992 284.06 235.351C284.06 235.235 284.022 235.118 283.868 235.002C282.719 234.011 281.532 233.05 280.383 232.06C279.54 230.983 278.352 230.08 277.05 229.352C274.981 228.187 273.066 226.964 271.342 225.566C269.082 223.731 266.401 222.974 263.145 223.236C261.383 223.382 260.081 222.741 259.353 221.605C258.319 220.004 256.442 218.81 254.565 217.82C252.841 216.917 250.275 216.072 249.087 214.762C248.589 214.237 247.9 213.801 247.517 213.189C246.329 211.383 244.222 210.568 241.886 209.84C240.89 209.549 240.162 208.966 239.549 208.355C238.86 207.685 238.132 207.132 237.366 206.491C236.638 205.909 236.408 205.006 235.718 204.336C234.914 203.55 233.918 202.88 232.884 202.268C231.237 201.278 229.59 200.288 228.211 199.094C227.215 198.22 226.334 197.667 224.878 198.337C223.691 198.89 222.541 199.502 221.507 200.201C221.048 200.521 220.588 200.841 220.205 201.191C219.86 201.511 219.592 202.152 219.171 202.414C217.064 203.753 214.497 204.685 212.39 206.025C211.701 206.462 210.897 206.316 210.437 205.676C209.058 203.812 207.104 202.326 205.189 200.812C204.768 200.463 204.27 200.171 203.772 199.938C202.163 199.24 200.899 198.249 198.83 198.453C198.754 198.395 198.715 198.366 198.639 198.308C196.034 196.531 193.851 194.463 191.476 192.541C190.901 192.075 190.518 191.464 189.982 190.969C189.024 190.066 187.645 189.629 186.305 189.134C183.776 188.26 181.555 186.95 179.333 185.698C176.039 183.863 173.127 181.795 171.174 179C170.255 177.718 168.914 177.689 167.42 178.796C164.815 180.718 162.44 182.815 160.18 184.97C158.84 186.251 157.307 187.358 155.584 188.319C155.201 188.523 154.856 188.756 154.473 188.988C152.481 189.746 150.795 190.823 149.455 192.221C149.378 192.308 149.34 192.396 149.34 192.483C147.693 193.59 146.199 194.696 144.973 196.036C142.981 198.191 140.951 200.346 139.112 202.559C137.159 204.918 134.324 206.637 131.796 208.559C130.111 209.84 128.195 211.005 126.088 211.937C124.824 212.49 123.637 212.403 122.411 211.733C121.875 211.442 121.3 211.121 120.726 210.859C120.726 210.714 120.649 210.568 120.419 210.452C118.734 209.578 116.78 208.704 115.21 207.656C113.563 206.52 111.915 205.384 110.268 204.249C109.157 203.491 107.702 201.977 105.978 202.152C105.289 202.239 103.718 202.589 103.373 203.113C103.067 203.579 102.914 204.074 102.607 204.54C101.918 205.588 100.998 206.491 99.7727 207.161C96.8997 208.821 94.6014 210.976 91.9967 212.84C89.1621 214.849 85.6763 216.101 82.5735 217.878C81.884 217.994 81.4244 218.635 80.6966 218.722C79.241 218.897 77.862 219.421 76.5979 220.062C74.4911 221.169 73.9931 223.149 72.2311 224.459C71.7331 224.809 71.3117 225.217 70.7755 225.537C70.3541 225.799 69.7412 225.974 69.3582 226.265C68.4771 226.818 67.5961 227.342 66.6768 227.867C64.953 228.886 63.2293 229.643 61.314 230.4C57.7516 231.856 54.4574 233.487 52.3506 236.225C51.0099 237.972 49.2861 239.516 47.7922 241.176C46.5665 242.515 45.5322 243.971 44 245.253C44.3064 245.369 44.4214 245.457 44.498 245.427C47.2943 244.641 50.1672 244.903 53.0018 245.02C55.4916 245.107 57.2537 244.175 59.1306 243.01C60.7778 241.991 62.8846 241.088 64.7232 240.331C65.451 240.011 66.447 239.865 67.1365 239.516C67.7876 239.195 68.1707 238.555 68.7836 238.176C70.1243 237.361 70.967 236.283 71.8097 235.147C72.1928 234.594 72.9972 234.332 73.8399 234.215C75.7552 233.982 76.9809 233.109 77.8237 231.798C78.7813 230.342 80.3901 229.265 82.0756 228.304C82.7651 227.896 83.5312 227.284 84.3356 227.08C85.4847 226.789 86.9786 226.906 88.1661 226.76C91.2305 226.411 93.797 225.042 95.9804 223.411C98.317 221.635 100.577 219.858 101.956 217.47C102.224 216.975 103.144 216.393 103.948 215.927C106.055 214.762 108.047 213.48 107.625 211.121C107.51 210.452 107.778 209.782 107.97 209.112C108.545 208.995 109.043 208.733 109.157 208.238C109.157 208.209 109.157 208.18 109.157 208.151C109.579 207.743 109.885 207.889 110.996 208.442C111.034 208.471 111.073 208.471 111.111 208.5C111.877 209.112 112.758 209.607 113.678 210.044C117.163 212.286 120.726 214.412 124.978 215.839C127.467 216.684 129.191 218.14 129.574 220.324C129.766 221.518 130.608 222.566 131.375 223.586C131.796 224.168 131.873 225.391 132.907 225.537C133.175 225.566 133.52 225.595 133.711 225.741C133.864 225.857 133.903 226.032 133.941 226.207C134.286 227.43 135.588 228.012 136.814 228.74C140.721 231.041 143.479 234.769 148.076 236.341C150.374 237.128 152.289 238.409 154.205 239.661C157.537 241.816 161.023 244.292 165.083 245.602C165.658 245.777 166.462 246.272 166.884 245.748C167.267 245.282 166.73 244.699 166.194 244.292C165.275 243.622 164.356 242.952 163.398 242.34C162.555 241.816 162.21 241.117 161.942 240.331C161.636 239.399 162.019 238.846 162.823 238.118C163.819 237.244 164.202 236.225 164.662 235.118C164.93 234.419 165.466 233.808 166.309 233.4C167.228 232.963 168.339 232.934 169.22 232.468C171.365 231.332 172.553 228.624 172.706 226.731C172.859 224.751 173.127 222.77 173.242 220.79C173.281 220.237 173.549 219.654 174.238 219.392C174.698 219.188 175.273 219.13 175.771 219.043C177.571 218.693 176.881 217.412 177.188 216.451C177.035 216.888 178.222 216.509 178.299 216.451C179.218 216.043 180.022 215.111 181.172 215.053C182.244 214.995 182.934 215.839 183.508 216.422C184.504 217.441 185.577 218.402 186.956 219.159C189.905 220.819 192.165 222.916 193.123 225.653C193.314 226.178 193.812 227.08 194.119 227.575C195.345 229.498 196.302 231.507 197.681 233.371C197.873 233.662 199.596 235.817 200.554 235.875C200.861 235.904 201.052 235.846 201.052 235.555C200.975 234.477 199.865 233.837 199.175 232.992C199.022 232.788 198.83 232.002 198.524 231.303C197.451 228.682 196.149 226.148 194.425 223.702C193.966 223.062 193.889 222.188 193.391 221.489C192.51 220.237 190.978 219.363 189.714 218.373C187.224 216.393 185.155 214.354 185.692 211.384C186.19 211.267 186.419 211.616 186.764 211.82C189.101 213.073 191.552 214.267 194.157 215.169C195.383 215.577 196.455 215.868 197.566 216.48C199.175 217.383 200.439 218.548 202.01 219.479C203.465 220.324 204.998 221.11 205.955 222.333C206.798 223.44 208.215 224.226 209.326 225.158C210.322 226.003 210.667 227.11 211.203 228.129C211.471 228.653 211.778 229.148 212.276 229.585C213.655 230.866 213.54 232.614 214.306 234.099C214.727 234.943 214.804 235.992 215.57 236.749C216.336 237.506 216.987 238.38 217.485 239.253C217.983 240.127 218.175 241.205 219.171 241.816C219.592 242.078 220.052 242.311 220.473 242.573C220.741 243.127 221.239 243.651 221.814 244.204C222.082 242.02 220.664 240.069 219.439 238.205C217.792 235.701 217.523 232.934 216.911 230.196C217.715 230.196 218.251 230.488 218.711 230.779C221.431 232.352 224.38 233.749 226.142 236.079C226.525 236.574 227.215 236.836 227.866 237.04C229.398 237.506 230.624 238.176 231.505 239.253C232.079 239.952 232.807 240.331 233.765 240.593C234.914 240.913 235.987 241.379 237.136 241.729C238.553 242.137 239.97 242.166 241.349 241.671C241.809 241.525 241.656 240.972 241.005 240.768C239.97 240.418 238.974 240.011 237.902 239.749C236.408 239.37 235.182 238.7 234.301 237.826C232.922 236.4 231.084 235.438 229.245 234.448C227.138 233.313 225.376 231.886 224.303 230.109C223.461 228.74 222.158 228.041 220.396 227.605C219.247 227.313 218.06 227.051 217.064 226.556C212.544 223.469 209.058 219.596 204.346 216.626C201.78 214.995 199.06 213.335 195.843 212.257C193.353 211.442 190.825 210.626 189.101 208.879C189.063 208.85 189.024 208.821 188.986 208.792C188.948 208.762 188.948 208.733 188.909 208.704C188.679 208.471 188.411 208.267 188.143 208.122C188.105 208.093 188.105 208.093 188.067 208.064C187.071 207.306 185.883 206.695 184.504 206.374C183.049 205.996 180.827 206.87 179.946 208.122C179.869 208.238 179.869 208.413 179.754 208.5C178.069 209.694 176.958 211.238 175.426 212.548C173.625 214.063 171.442 214.325 169.182 215.257C167.535 215.956 166.616 217.47 165.351 218.518C163.819 219.829 162.44 221.227 161.827 222.945C161.636 223.557 161.061 224.023 160.448 224.43C159.338 225.246 158.073 225.857 156.694 226.381C156.196 226.556 155.66 226.76 155.354 227.08C153.822 228.566 151.408 229.002 149.493 230.051C148.689 230.488 148.037 230.429 147.271 229.789C146.199 228.886 144.781 228.274 144.169 227.022C143.824 226.352 143.632 225.974 143.824 225.741C145.126 225.537 146.352 225.246 147.578 224.809C148.114 224.634 147.961 224.168 147.578 223.964C149.378 221.664 151.14 219.509 151.83 217.004C152.519 214.5 152.328 211.879 153.17 209.374C153.592 208.093 154.205 206.957 155.737 206.083C157.154 205.297 157.92 203.986 158.954 202.909C159.299 202.559 159.299 202.094 159.261 201.628C159.069 199.618 159.338 197.259 161.636 195.978C163.091 195.133 164.241 193.998 164.892 192.687C165.581 191.318 165.39 189.862 166.73 188.697C167.956 187.649 168.952 186.513 169.297 185.115C169.45 184.533 170.025 184.125 170.599 183.863C171.863 183.281 174.2 185.727 175.004 186.251C177.648 187.998 180.559 189.571 183.432 191.085C184.542 191.668 185.807 192.134 186.994 192.658C188.718 193.386 189.752 194.842 191.016 195.949C191.591 196.473 191.552 196.852 190.595 196.822C188.105 196.735 186.113 197.783 183.93 198.482C183.317 198.686 182.704 198.919 182.436 199.618C183.7 199.502 184.849 199.443 185.998 199.298C187.377 199.094 188.679 199.473 189.982 199.764C191.399 200.084 192.816 200.084 194.272 200.201C197.375 200.463 200.937 201.016 203.044 202.851C205.189 204.715 207.028 206.753 208.713 208.85C210.169 210.626 211.739 212.374 213.272 214.092C213.501 214.354 213.846 214.791 214.306 214.616C214.765 214.441 214.497 214.005 214.421 213.684C214.344 213.306 214.191 212.956 214.267 212.49C216.604 212.869 218.558 213.742 220.052 214.995C223.729 218.111 227.023 221.46 230.394 224.751C231.237 225.566 231.62 226.44 232.003 227.342C232.424 228.304 232.96 229.206 233.88 229.963C235.259 231.099 235.987 232.526 237.097 233.779C237.366 234.07 237.519 234.39 238.132 234.39C238.4 233.924 238.323 233.313 238.055 233.021C236.753 231.594 236.753 229.876 236.14 228.304C235.91 227.692 235.833 227.313 236.025 227.051C236.638 227.11 237.251 227.139 237.902 227.197C239.97 227.954 241.924 228.886 244.107 229.498C245.64 229.905 246.98 230.517 248.091 231.42C249.393 232.468 250.926 233.254 252.496 233.982C252.918 234.186 253.033 234.769 253.262 235.176C253.99 236.487 254.258 237.885 254.565 239.283C254.756 240.156 255.063 241.001 256.097 241.962C255.752 239.836 255.178 237.943 255.139 235.875C257.208 236.749 259.391 237.128 260.77 238.642C261.421 239.341 262.647 239.661 263.605 240.127C264.869 240.71 266.21 241.146 267.512 241.554C268.968 242.02 270.5 242.311 272.224 242.34C271.994 241.7 271.266 241.525 270.73 241.292C266.324 239.545 262.532 237.186 259.008 234.536C257.936 233.72 256.94 232.817 255.905 231.944C253.99 230.342 252.228 228.624 249.853 227.342C247.785 226.207 246.367 224.576 244.644 223.178C242.537 221.46 239.894 220.208 237.672 218.606C234.952 216.626 231.696 215.257 228.517 213.742C226.717 212.869 226.257 211.296 225.721 209.84C225.261 208.617 225.261 207.365 225.759 206.171C226.295 204.889 226.449 203.608 226.449 202.297C226.449 201.89 226.487 201.511 226.947 201.336C227.406 201.162 227.751 201.54 228.134 201.744C230.969 203.258 232.539 205.559 234.531 207.627C235.221 208.355 235.872 209.083 236.025 210.015C236.14 210.597 236.714 210.947 237.404 211.209C238.745 211.733 240.047 212.257 241.388 212.752C242.69 213.247 243.724 213.888 244.49 214.849C246.444 217.499 249.049 219.567 252.994 220.673C254.871 221.198 256.442 222.421 257.744 223.673C258.127 224.052 258.28 224.547 257.782 224.896C257.016 225.42 257.016 226.265 256.25 226.789C255.752 227.11 256.135 227.634 256.748 227.546C257.169 227.488 257.667 226.993 257.974 226.789C259.391 225.857 260.425 225.391 262.341 225.333C264.179 225.304 265.788 225.741 267.474 226.294C272.07 227.867 275.211 230.662 278.467 233.4C280.076 234.769 281.608 236.254 283.907 237.069C284.634 237.331 284.941 237.826 285.132 238.38C285.477 239.283 286.205 240.011 286.971 240.768C287.239 240.68 287.546 240.622 287.852 240.564C287.661 239.778 286.894 239.166 286.856 238.409C287.392 238.38 287.699 238.671 288.005 238.846C290.227 239.982 292.219 241.117 294.556 241.874ZM147.769 242.573C147.425 241.962 147.042 241.409 146.199 240.913C145.854 240.389 145.279 239.923 144.437 239.545C141.028 237.943 137.427 236.632 133.979 235.118C132.677 234.536 131.681 233.633 130.685 232.788C129.613 231.886 128.463 231.274 127.123 230.633C123.637 228.944 120.189 227.022 117.163 224.867C117.048 224.256 116.321 223.79 115.554 223.673C115.516 223.673 115.516 223.673 115.478 223.673C114.788 222.654 113.486 221.78 112.145 221.635C111.264 221.547 110.536 221.868 109.924 222.275C108.468 223.236 107.051 224.314 105.518 225.217C103.948 226.148 102.263 227.226 100.539 227.954C98.8916 228.653 96.8231 228.449 95.0611 228.42C93.5672 228.391 92.418 228.799 91.4221 229.614C89.8899 230.866 87.6681 231.536 86.2508 232.817C86.1359 232.934 84.7952 232.934 84.5271 232.963C83.9142 233.08 83.3013 233.225 82.7651 233.458C81.6542 233.895 80.8498 234.565 79.8922 235.176C77.5938 236.632 75.4487 238.234 73.3036 239.836C72.844 240.185 72.3077 240.098 72.0012 240.36C69.7029 242.137 66.6768 243.505 65.6425 246.097C65.5276 246.388 65.1829 246.621 65.4127 247C67.2897 245.748 69.2049 244.525 71.0436 243.243C71.8097 242.719 72.9972 242.632 73.7633 242.107C74.0314 241.933 75.6019 240.651 76.0233 241.176C76.3297 241.554 76.1765 242.224 75.7552 242.748C74.8358 243.855 73.9931 244.961 72.8823 245.981C75.104 245.253 76.5596 243.971 77.747 242.457C79.0111 240.797 80.62 239.399 82.8034 238.351C85.523 237.04 88.5492 236.196 91.2689 234.914C92.0733 234.536 92.7245 233.982 93.6055 233.72C94.0651 233.779 94.7163 233.866 95.176 233.779C95.2909 233.837 95.4058 233.924 95.5207 233.982C95.3292 234.361 94.9845 234.74 94.6397 235.06C92.9926 236.574 91.3838 238.118 89.6217 239.574C89.5068 239.69 89.3919 239.778 89.3153 239.894C88.5492 240.302 87.898 240.768 87.3617 241.35C85.638 242.544 83.6844 243.534 82.2288 244.961C81.2711 245.893 81.501 246.592 83.0332 246.825C85.4081 247.175 87.6681 246.884 89.6217 245.748C91.2305 244.845 92.9543 244.408 94.9462 244.379C96.7848 244.35 98.3554 243.855 99.7727 242.923C100.998 242.107 102.684 241.729 103.756 240.739C105.135 239.486 106.591 238.263 107.127 236.662C107.357 235.963 108.008 235.526 108.545 235.002C109.157 234.419 110.536 234.244 111.341 233.895C112.528 233.342 112.758 232.381 112.95 231.42C113.18 230.051 114.137 229.148 115.325 228.274C116.129 227.692 116.933 227.663 117.661 228.362C119.5 230.196 122.105 231.158 124.709 232.148C126.242 232.73 127.697 233.429 128.808 234.594C129.996 235.817 131.068 237.098 132.179 238.38C132.945 239.283 133.481 240.797 134.631 241.409C136.393 242.34 137.542 243.127 138.691 244.525C139.266 245.253 139.955 245.922 141.066 246.68C140.759 244.088 140.108 241.874 137.542 240.331C136.508 239.69 136.239 238.846 135.971 237.797C138.806 238.525 141.066 239.69 143.173 241.059C144.284 241.787 145.394 242.661 146.658 243.272C146.927 244.146 148.344 244.088 148.918 244.758C148.65 244.466 148.612 243.855 148.42 243.505C148.076 243.156 147.923 242.836 147.769 242.573Z" fill="#28262C"/>
<path d="M225.755 267.5C221.196 267.5 215.532 263.795 219.836 262.294V262.294C224.194 260.802 234.395 259.62 243.407 258.86C252.519 258.101 260.442 257.735 262.323 256.525C264.205 255.286 260.144 253.176 261.234 251.825C262.224 250.502 268.563 249.939 272.92 249.264C277.278 248.561 279.655 247.744 280.15 245.606C280.744 243.439 279.358 240.005 284.309 239.808C289.36 239.611 300.651 242.679 305.9 241.891C311.149 241.131 310.356 236.544 313.823 235.362C317.289 234.208 325.014 236.46 331.253 236.291V236.291C338.839 236.12 347 240.203 347 247.791V253.853C347 261.39 340.89 267.5 333.353 267.5H225.755Z" fill="#77BFF7"/>
<path d="M303 252.05C303 254.631 301.055 256.796 298.49 257.072L296.544 257.281C290.088 257.959 277.176 259.347 264.479 259.81C251.675 260.273 239.193 259.843 226.389 259.033C213.692 258.24 200.78 257.083 187.868 256.752C174.956 256.421 162.044 256.917 149.132 257.463C136.22 258.025 123.308 258.62 110.611 259.182C97.8068 259.727 85.3252 260.223 72.5208 259.694C59.824 259.182 46.912 257.628 40.456 256.868L38.2424 256.601C35.8216 256.31 34 254.256 34 251.818V251.818C34 249.157 36.1571 247 38.818 247H40.456C46.912 247 59.824 247 72.5208 247C85.3252 247 97.8068 247 110.611 247C123.308 247 136.22 247 149.132 247C162.044 247 174.956 247 187.868 247C200.78 247 213.692 247 226.389 247C239.193 247 251.675 247 264.479 247C277.176 247 290.088 247 296.544 247H297.95C300.739 247 303 249.261 303 252.05V252.05Z" fill="#F8A87D"/>
<path d="M133.444 259.549L128.085 259.524V263.445H125.53V259.549H121.416L123.287 261.204L115.519 261.165V265.5H111.813V261.204H104.122L105.804 259.892L101.868 259.873V263.095H99.312V259.899H94L97.3938 257.254H95.6762L98.285 254.958L96.8567 254.903L98.7277 253.194L97.7951 253.169L99.4123 251.886H98.6332L100.599 250.097L102.664 251.886H101.974L103.349 253.169L102.417 253.194L104.335 254.929L103.107 254.955L105.421 257.145L104.193 257.199L106.572 259.302L109.051 257.372H106.56L110.337 254.044L108.272 253.967L110.981 251.489L109.629 251.45L111.884 249.594L110.839 249.639L113.666 247L116.659 249.594H115.661L117.656 251.45L116.304 251.489L119.084 254.006L117.302 254.044L120.648 257.218L118.866 257.295L120.855 259.055L123.611 256.907H121.888L124.491 254.612L123.062 254.557L124.933 252.848L124.001 252.823L125.553 251.562H124.963L126.804 249.751L128.87 251.54H128.186L129.561 252.823L128.628 252.848L130.546 254.583L129.319 254.608L131.632 256.798L130.405 256.853L133.444 259.549Z" fill="#28262C"/>
</svg>
