<svg width="371" height="286" viewBox="0 0 371 286" fill="none" xmlns="http://www.w3.org/2000/svg">
<path d="M339.308 88.3443C371.197 136.094 382.308 196.644 355.92 233.794C329.531 270.944 265.697 284.644 199.697 285.794C133.697 286.894 65.5307 275.444 29.4751 233.244C-6.636 191.094 -10.636 118.144 23.4195 69.2943C57.5307 20.3943 129.697 -4.40571 192.142 0.64429C254.642 5.64429 307.364 40.5943 339.308 88.3443Z" fill="#7BDDBD"/>
<path d="M178.838 158.933L177.623 129.008L168.263 130.223V123.383L196.118 125.948V126.578L185.903 127.928L184.688 158.933H178.838ZM215.279 159.833C213.569 159.833 211.769 159.413 209.879 158.573C208.019 157.703 206.264 156.458 204.614 154.838C202.964 153.218 201.629 151.268 200.609 148.988C199.589 146.708 199.079 144.143 199.079 141.293C199.079 139.073 199.409 137.018 200.069 135.128C200.759 133.208 201.674 131.498 202.814 129.998C203.954 128.498 205.229 127.223 206.639 126.173C208.049 125.093 209.489 124.283 210.959 123.743C212.459 123.173 213.899 122.888 215.279 122.888C216.629 122.888 218.039 123.173 219.509 123.743C221.009 124.313 222.449 125.138 223.829 126.218C225.239 127.268 226.514 128.543 227.654 130.043C228.794 131.543 229.694 133.238 230.354 135.128C231.014 137.018 231.344 139.073 231.344 141.293C231.344 144.143 230.834 146.708 229.814 148.988C228.794 151.268 227.474 153.218 225.854 154.838C224.234 156.458 222.494 157.703 220.634 158.573C218.774 159.413 216.989 159.833 215.279 159.833ZM217.079 155.963C218.489 155.963 219.734 155.498 220.814 154.568C221.894 153.638 222.734 152.348 223.334 150.698C223.964 149.018 224.279 147.083 224.279 144.893C224.279 141.863 223.934 139.223 223.244 136.973C222.554 134.693 221.654 132.803 220.544 131.303C219.434 129.803 218.249 128.678 216.989 127.928C215.759 127.178 214.589 126.803 213.479 126.803C212.099 126.803 210.854 127.268 209.744 128.198C208.634 129.098 207.749 130.358 207.089 131.978C206.459 133.598 206.144 135.503 206.144 137.693C206.144 140.903 206.489 143.663 207.179 145.973C207.899 148.283 208.814 150.173 209.924 151.643C211.064 153.113 212.264 154.208 213.524 154.928C214.784 155.618 215.969 155.963 217.079 155.963ZM264.754 123.383H265.339L266.869 146.783C266.869 146.903 266.869 147.038 266.869 147.188C266.899 147.308 266.914 147.443 266.914 147.593C266.914 149.963 266.284 152.078 265.024 153.938C263.764 155.768 262.054 157.208 259.894 158.258C257.764 159.308 255.379 159.833 252.739 159.833C249.919 159.833 247.519 159.233 245.539 158.033C243.589 156.833 242.089 155.243 241.039 153.263C240.019 151.283 239.464 149.123 239.374 146.783L238.474 123.833H246.799L245.449 146.423C245.449 146.603 245.434 146.783 245.404 146.963C245.404 147.113 245.404 147.263 245.404 147.413C245.404 150.203 246.079 152.423 247.429 154.073C248.779 155.693 250.549 156.503 252.739 156.503C253.939 156.503 255.034 156.068 256.024 155.198C257.044 154.298 257.914 153.068 258.634 151.508C259.384 149.918 259.954 148.103 260.344 146.063L264.754 123.383ZM302.985 159.518L284.445 143.003L284.49 142.373C286.26 142.013 287.85 141.383 289.26 140.483C290.7 139.553 291.9 138.503 292.86 137.333C293.85 136.133 294.54 134.948 294.93 133.778C295.2 132.998 295.335 132.263 295.335 131.573C295.335 130.403 294.93 129.443 294.12 128.693C293.31 127.943 292.065 127.568 290.385 127.568C288.315 127.568 286.14 127.853 283.86 128.423L283.185 158.933H277.425L275.76 123.833H283.95L283.905 126.308C285.315 125.528 286.74 124.928 288.18 124.508C289.65 124.058 291.06 123.833 292.41 123.833C294.93 123.833 296.94 124.253 298.44 125.093C299.94 125.903 301.02 126.938 301.68 128.198C302.37 129.428 302.715 130.703 302.715 132.023C302.715 132.923 302.58 133.763 302.31 134.543C301.89 135.833 301.155 137.003 300.105 138.053C299.085 139.073 297.9 139.928 296.55 140.618C295.23 141.308 293.925 141.818 292.635 142.148L303.57 159.563L302.985 159.518ZM335.263 149.663C335.083 152.243 334.363 154.283 333.103 155.783C331.843 157.253 330.253 158.303 328.333 158.933C326.443 159.533 324.403 159.833 322.213 159.833C320.653 159.833 318.958 159.428 317.128 158.618C315.328 157.808 313.573 156.593 311.863 154.973C310.153 153.353 308.653 151.313 307.363 148.853L307.678 148.538C308.878 149.468 310.153 150.308 311.503 151.058C312.883 151.808 314.248 152.453 315.598 152.993C316.948 153.503 318.193 153.893 319.333 154.163C320.503 154.433 321.448 154.568 322.168 154.568C323.578 154.568 324.763 154.238 325.723 153.578C326.713 152.918 327.283 151.823 327.433 150.293V150.158C327.433 149.498 326.998 148.808 326.128 148.088C325.258 147.338 324.118 146.543 322.708 145.703C321.328 144.863 319.858 143.978 318.298 143.048C316.768 142.118 315.313 141.158 313.933 140.168C312.553 139.148 311.413 138.098 310.513 137.018C309.643 135.938 309.208 134.813 309.208 133.643C309.208 133.493 309.208 133.373 309.208 133.283C309.208 133.163 309.223 133.043 309.253 132.923C309.613 130.913 310.408 129.158 311.638 127.658C312.898 126.158 314.398 124.988 316.138 124.148C317.908 123.308 319.738 122.888 321.628 122.888C323.548 122.888 325.603 123.188 327.793 123.788C330.013 124.358 332.278 125.183 334.588 126.263L332.068 133.598C329.728 131.318 327.718 129.638 326.038 128.558C324.358 127.478 322.768 126.938 321.268 126.938C319.648 126.938 318.403 127.343 317.533 128.153C316.693 128.933 316.213 130.253 316.093 132.113V132.248C316.093 132.938 316.438 133.628 317.128 134.318C317.818 135.008 318.733 135.713 319.873 136.433C321.013 137.123 322.258 137.843 323.608 138.593C324.988 139.313 326.353 140.078 327.703 140.888C329.083 141.668 330.343 142.508 331.483 143.408C332.623 144.278 333.538 145.208 334.228 146.198C334.918 147.158 335.263 148.193 335.263 149.303V149.663Z" fill="#28262C"/>
<path d="M58.429 60.3H70.389L69.219 99.365C69.1323 102.745 68.6773 105.388 67.854 107.295C67.074 109.158 66.0773 110.458 64.864 111.195C63.694 111.932 62.459 112.3 61.159 112.3C59.6423 112.3 57.844 111.823 55.764 110.87C53.7273 109.873 51.6907 108.573 49.654 106.97C47.6607 105.367 45.9273 103.633 44.454 101.77L44.779 101.12C46.5557 101.943 48.354 102.615 50.174 103.135C51.994 103.655 53.6623 104.045 55.179 104.305C56.739 104.522 57.909 104.63 58.689 104.63C59.4257 104.63 59.989 104.327 60.379 103.72C60.769 103.113 60.964 101.878 60.964 100.015C60.964 99.6683 60.964 99.3 60.964 98.91C60.964 98.52 60.9423 98.1083 60.899 97.675L58.429 60.3ZM86.0312 111.65L83.6262 60.3H95.4562L95.3262 65.24L118.726 59.65V70.18L95.2612 67.905L94.8712 84.35L115.411 79.54V89.875L94.8062 86.95L94.4162 102.615L120.026 105.345V105.995L86.0312 111.65ZM171.536 111L169.651 72.975L155.156 106.06H154.701L140.141 72.975L134.226 111.91H133.251L129.676 60.3H141.636L157.431 86.56L169.521 60.3H180.116L179.141 111H171.536ZM234.598 111L232.713 72.975L218.218 106.06H217.763L203.203 72.975L197.288 111.91H196.313L192.738 60.3H204.698L220.493 86.56L232.583 60.3H243.178L242.203 111H234.598Z" fill="#28262C"/>
<path d="M155.288 233.525C155.748 234.573 157.127 235.301 156.974 236.641C155.709 236.35 154.675 235.971 154.139 235.01C153.641 234.107 152.951 233.263 152.415 232.389C151.534 230.933 151.075 229.302 149.887 227.934C148.929 226.827 148.814 225.633 148.661 224.381C148.623 224.148 148.546 223.827 148.929 223.769C149.274 223.711 149.696 224.089 150.155 224.643C151.075 225.808 152.032 227.73 152.3 228.137C153.449 229.914 154.484 231.69 155.288 233.525ZM325.556 233.874C325.326 233.467 325.134 233.03 325.019 232.593C322.836 231.341 320.691 230.089 318.278 229.069C317.128 228.574 316.056 227.992 315.06 227.351C315.06 227.235 315.022 227.118 314.868 227.002C313.719 226.011 312.532 225.05 311.383 224.06C310.54 222.983 309.352 222.08 308.05 221.352C305.981 220.187 304.066 218.964 302.342 217.566C300.082 215.731 297.401 214.974 294.145 215.236C292.383 215.382 291.081 214.741 290.353 213.605C289.319 212.004 287.442 210.81 285.565 209.82C283.841 208.917 281.275 208.072 280.087 206.762C279.589 206.237 278.9 205.801 278.517 205.189C277.329 203.383 275.222 202.568 272.886 201.84C271.89 201.549 271.162 200.966 270.549 200.355C269.86 199.685 269.132 199.132 268.366 198.491C267.638 197.909 267.408 197.006 266.718 196.336C265.914 195.55 264.918 194.88 263.884 194.268C262.237 193.278 260.59 192.288 259.211 191.094C258.215 190.22 257.334 189.667 255.878 190.337C254.691 190.89 253.541 191.502 252.507 192.201C252.048 192.521 251.588 192.841 251.205 193.191C250.86 193.511 250.592 194.152 250.171 194.414C248.064 195.753 245.497 196.685 243.39 198.025C242.701 198.462 241.897 198.316 241.437 197.676C240.058 195.812 238.104 194.326 236.189 192.812C235.768 192.463 235.27 192.171 234.772 191.938C233.163 191.24 231.899 190.249 229.83 190.453C229.754 190.395 229.715 190.366 229.639 190.308C227.034 188.531 224.851 186.463 222.476 184.541C221.901 184.075 221.518 183.464 220.982 182.969C220.024 182.066 218.645 181.629 217.305 181.134C214.776 180.26 212.555 178.95 210.333 177.698C207.039 175.863 204.127 173.795 202.174 171C201.255 169.718 199.914 169.689 198.42 170.796C195.815 172.718 193.44 174.815 191.18 176.97C189.84 178.251 188.307 179.358 186.584 180.319C186.201 180.523 185.856 180.756 185.473 180.988C183.481 181.746 181.795 182.823 180.455 184.221C180.378 184.308 180.34 184.396 180.34 184.483C178.693 185.59 177.199 186.696 175.973 188.036C173.981 190.191 171.951 192.346 170.112 194.559C168.159 196.918 165.324 198.637 162.796 200.559C161.111 201.84 159.195 203.005 157.088 203.937C155.824 204.49 154.637 204.403 153.411 203.733C152.875 203.442 152.3 203.121 151.726 202.859C151.726 202.714 151.649 202.568 151.419 202.452C149.734 201.578 147.78 200.704 146.21 199.656C144.563 198.52 142.915 197.384 141.268 196.249C140.157 195.491 138.702 193.977 136.978 194.152C136.289 194.239 134.718 194.589 134.373 195.113C134.067 195.579 133.914 196.074 133.607 196.54C132.918 197.588 131.998 198.491 130.773 199.161C127.9 200.821 125.601 202.976 122.997 204.84C120.162 206.849 116.676 208.101 113.574 209.878C112.884 209.994 112.424 210.635 111.697 210.722C110.241 210.897 108.862 211.421 107.598 212.062C105.491 213.169 104.993 215.149 103.231 216.459C102.733 216.809 102.312 217.217 101.775 217.537C101.354 217.799 100.741 217.974 100.358 218.265C99.4771 218.818 98.5961 219.342 97.6768 219.867C95.953 220.886 94.2293 221.643 92.314 222.4C88.7516 223.856 85.4574 225.487 83.3506 228.225C82.0099 229.972 80.2861 231.516 78.7922 233.176C77.5665 234.515 76.5322 235.971 75 237.253C75.3064 237.369 75.4214 237.457 75.498 237.427C78.2943 236.641 81.1672 236.903 84.0018 237.02C86.4916 237.107 88.2537 236.175 90.1306 235.01C91.7778 233.991 93.8846 233.088 95.7232 232.331C96.451 232.011 97.447 231.865 98.1365 231.516C98.7876 231.195 99.1707 230.555 99.7836 230.176C101.124 229.361 101.967 228.283 102.81 227.147C103.193 226.594 103.997 226.332 104.84 226.215C106.755 225.982 107.981 225.109 108.824 223.798C109.781 222.342 111.39 221.265 113.076 220.304C113.765 219.896 114.531 219.284 115.336 219.08C116.485 218.789 117.979 218.906 119.166 218.76C122.231 218.411 124.797 217.042 126.98 215.411C129.317 213.635 131.577 211.858 132.956 209.47C133.224 208.975 134.144 208.393 134.948 207.927C137.055 206.762 139.047 205.48 138.625 203.121C138.51 202.452 138.778 201.782 138.97 201.112C139.545 200.995 140.043 200.733 140.157 200.238C140.157 200.209 140.157 200.18 140.157 200.151C140.579 199.743 140.885 199.889 141.996 200.442C142.034 200.471 142.073 200.471 142.111 200.5C142.877 201.112 143.758 201.607 144.678 202.044C148.163 204.286 151.726 206.412 155.978 207.839C158.467 208.684 160.191 210.14 160.574 212.324C160.766 213.518 161.608 214.566 162.375 215.586C162.796 216.168 162.873 217.391 163.907 217.537C164.175 217.566 164.52 217.595 164.711 217.741C164.864 217.857 164.903 218.032 164.941 218.207C165.286 219.43 166.588 220.012 167.814 220.74C171.721 223.041 174.479 226.769 179.076 228.341C181.374 229.128 183.289 230.409 185.205 231.661C188.537 233.816 192.023 236.292 196.083 237.602C196.658 237.777 197.462 238.272 197.884 237.748C198.267 237.282 197.73 236.699 197.194 236.292C196.275 235.622 195.356 234.952 194.398 234.34C193.555 233.816 193.21 233.117 192.942 232.331C192.636 231.399 193.019 230.846 193.823 230.118C194.819 229.244 195.202 228.225 195.662 227.118C195.93 226.419 196.466 225.808 197.309 225.4C198.228 224.963 199.339 224.934 200.22 224.468C202.365 223.332 203.553 220.624 203.706 218.731C203.859 216.751 204.127 214.77 204.242 212.79C204.281 212.237 204.549 211.654 205.238 211.392C205.698 211.188 206.273 211.13 206.771 211.043C208.571 210.693 207.881 209.412 208.188 208.451C208.035 208.888 209.222 208.509 209.299 208.451C210.218 208.043 211.022 207.111 212.172 207.053C213.244 206.995 213.934 207.839 214.508 208.422C215.504 209.441 216.577 210.402 217.956 211.159C220.905 212.819 223.165 214.916 224.123 217.653C224.314 218.178 224.812 219.08 225.119 219.575C226.345 221.498 227.302 223.507 228.681 225.371C228.873 225.662 230.596 227.817 231.554 227.875C231.861 227.904 232.052 227.846 232.052 227.555C231.975 226.477 230.865 225.837 230.175 224.992C230.022 224.788 229.83 224.002 229.524 223.303C228.451 220.682 227.149 218.148 225.425 215.702C224.966 215.062 224.889 214.188 224.391 213.489C223.51 212.237 221.978 211.363 220.714 210.373C218.224 208.393 216.155 206.354 216.692 203.384C217.19 203.267 217.419 203.616 217.764 203.82C220.101 205.073 222.552 206.267 225.157 207.169C226.383 207.577 227.455 207.868 228.566 208.48C230.175 209.383 231.439 210.548 233.01 211.479C234.465 212.324 235.998 213.11 236.955 214.333C237.798 215.44 239.215 216.226 240.326 217.158C241.322 218.003 241.667 219.11 242.203 220.129C242.471 220.653 242.778 221.148 243.276 221.585C244.655 222.866 244.54 224.614 245.306 226.099C245.727 226.943 245.804 227.992 246.57 228.749C247.336 229.506 247.987 230.38 248.485 231.253C248.983 232.127 249.175 233.205 250.171 233.816C250.592 234.078 251.052 234.311 251.473 234.573C251.741 235.127 252.239 235.651 252.814 236.204C253.082 234.02 251.664 232.069 250.439 230.205C248.792 227.701 248.523 224.934 247.911 222.196C248.715 222.196 249.251 222.488 249.711 222.779C252.431 224.352 255.38 225.749 257.142 228.079C257.525 228.574 258.215 228.836 258.866 229.04C260.398 229.506 261.624 230.176 262.505 231.253C263.079 231.952 263.807 232.331 264.765 232.593C265.914 232.913 266.987 233.379 268.136 233.729C269.553 234.137 270.97 234.166 272.349 233.671C272.809 233.525 272.656 232.972 272.005 232.768C270.97 232.418 269.974 232.011 268.902 231.749C267.408 231.37 266.182 230.7 265.301 229.826C263.922 228.4 262.084 227.438 260.245 226.448C258.138 225.313 256.376 223.886 255.303 222.109C254.461 220.74 253.158 220.041 251.396 219.605C250.247 219.313 249.06 219.051 248.064 218.556C243.544 215.469 240.058 211.596 235.346 208.626C232.78 206.995 230.06 205.335 226.843 204.257C224.353 203.442 221.825 202.626 220.101 200.879C220.063 200.85 220.024 200.821 219.986 200.792C219.948 200.762 219.948 200.733 219.909 200.704C219.679 200.471 219.411 200.267 219.143 200.122C219.105 200.093 219.105 200.093 219.067 200.064C218.071 199.306 216.883 198.695 215.504 198.374C214.049 197.996 211.827 198.87 210.946 200.122C210.869 200.238 210.869 200.413 210.754 200.5C209.069 201.694 207.958 203.238 206.426 204.548C204.625 206.063 202.442 206.325 200.182 207.257C198.535 207.956 197.616 209.47 196.351 210.518C194.819 211.829 193.44 213.227 192.827 214.945C192.636 215.557 192.061 216.023 191.448 216.43C190.338 217.246 189.073 217.857 187.694 218.381C187.196 218.556 186.66 218.76 186.354 219.08C184.822 220.566 182.408 221.002 180.493 222.051C179.689 222.488 179.037 222.429 178.271 221.789C177.199 220.886 175.781 220.274 175.169 219.022C174.824 218.352 174.632 217.974 174.824 217.741C176.126 217.537 177.352 217.246 178.578 216.809C179.114 216.634 178.961 216.168 178.578 215.964C180.378 213.664 182.14 211.509 182.83 209.004C183.519 206.5 183.328 203.879 184.17 201.374C184.592 200.093 185.205 198.957 186.737 198.083C188.154 197.297 188.92 195.986 189.954 194.909C190.299 194.559 190.299 194.094 190.261 193.628C190.069 191.618 190.338 189.259 192.636 187.978C194.091 187.133 195.241 185.998 195.892 184.687C196.581 183.318 196.39 181.862 197.73 180.697C198.956 179.649 199.952 178.513 200.297 177.115C200.45 176.533 201.025 176.125 201.599 175.863C202.863 175.281 205.2 177.727 206.004 178.251C208.648 179.998 211.559 181.571 214.432 183.085C215.542 183.668 216.807 184.134 217.994 184.658C219.718 185.386 220.752 186.842 222.016 187.949C222.591 188.473 222.552 188.852 221.595 188.822C219.105 188.735 217.113 189.783 214.93 190.482C214.317 190.686 213.704 190.919 213.436 191.618C214.7 191.502 215.849 191.443 216.998 191.298C218.377 191.094 219.679 191.473 220.982 191.764C222.399 192.084 223.816 192.084 225.272 192.201C228.375 192.463 231.937 193.016 234.044 194.851C236.189 196.715 238.028 198.753 239.713 200.85C241.169 202.626 242.739 204.374 244.272 206.092C244.501 206.354 244.846 206.791 245.306 206.616C245.765 206.441 245.497 206.005 245.421 205.684C245.344 205.306 245.191 204.956 245.267 204.49C247.604 204.869 249.558 205.742 251.052 206.995C254.729 210.111 258.023 213.46 261.394 216.751C262.237 217.566 262.62 218.44 263.003 219.342C263.424 220.304 263.96 221.206 264.88 221.963C266.259 223.099 266.987 224.526 268.097 225.779C268.366 226.07 268.519 226.39 269.132 226.39C269.4 225.924 269.323 225.313 269.055 225.021C267.753 223.594 267.753 221.876 267.14 220.304C266.91 219.692 266.833 219.313 267.025 219.051C267.638 219.11 268.251 219.139 268.902 219.197C270.97 219.954 272.924 220.886 275.107 221.498C276.64 221.905 277.98 222.517 279.091 223.42C280.393 224.468 281.926 225.254 283.496 225.982C283.918 226.186 284.033 226.769 284.262 227.176C284.99 228.487 285.258 229.885 285.565 231.283C285.756 232.156 286.063 233.001 287.097 233.962C286.752 231.836 286.178 229.943 286.139 227.875C288.208 228.749 290.391 229.128 291.77 230.642C292.421 231.341 293.647 231.661 294.605 232.127C295.869 232.71 297.21 233.146 298.512 233.554C299.968 234.02 301.5 234.311 303.224 234.34C302.994 233.7 302.266 233.525 301.73 233.292C297.324 231.545 293.532 229.186 290.008 226.536C288.936 225.72 287.94 224.817 286.905 223.944C284.99 222.342 283.228 220.624 280.853 219.342C278.785 218.207 277.367 216.576 275.644 215.178C273.537 213.46 270.894 212.208 268.672 210.606C265.952 208.626 262.696 207.257 259.517 205.742C257.717 204.869 257.257 203.296 256.721 201.84C256.261 200.617 256.261 199.365 256.759 198.171C257.295 196.889 257.449 195.608 257.449 194.297C257.449 193.89 257.487 193.511 257.947 193.336C258.406 193.162 258.751 193.54 259.134 193.744C261.969 195.258 263.539 197.559 265.531 199.627C266.221 200.355 266.872 201.083 267.025 202.015C267.14 202.597 267.714 202.947 268.404 203.209C269.745 203.733 271.047 204.257 272.388 204.752C273.69 205.247 274.724 205.888 275.49 206.849C277.444 209.499 280.049 211.567 283.994 212.673C285.871 213.198 287.442 214.421 288.744 215.673C289.127 216.052 289.28 216.547 288.782 216.896C288.016 217.42 288.016 218.265 287.25 218.789C286.752 219.11 287.135 219.634 287.748 219.546C288.169 219.488 288.667 218.993 288.974 218.789C290.391 217.857 291.425 217.391 293.341 217.333C295.179 217.304 296.788 217.741 298.474 218.294C303.07 219.867 306.211 222.662 309.467 225.4C311.076 226.769 312.608 228.254 314.907 229.069C315.634 229.331 315.941 229.826 316.132 230.38C316.477 231.283 317.205 232.011 317.971 232.768C318.239 232.68 318.546 232.622 318.852 232.564C318.661 231.778 317.894 231.166 317.856 230.409C318.392 230.38 318.699 230.671 319.005 230.846C321.227 231.982 323.219 233.117 325.556 233.874ZM178.769 234.573C178.425 233.962 178.042 233.409 177.199 232.913C176.854 232.389 176.279 231.923 175.437 231.545C172.028 229.943 168.427 228.632 164.979 227.118C163.677 226.536 162.681 225.633 161.685 224.788C160.613 223.886 159.463 223.274 158.123 222.633C154.637 220.944 151.189 219.022 148.163 216.867C148.048 216.256 147.321 215.79 146.554 215.673C146.516 215.673 146.516 215.673 146.478 215.673C145.788 214.654 144.486 213.78 143.145 213.635C142.264 213.547 141.536 213.868 140.924 214.275C139.468 215.236 138.051 216.314 136.518 217.217C134.948 218.148 133.263 219.226 131.539 219.954C129.892 220.653 127.823 220.449 126.061 220.42C124.567 220.391 123.418 220.799 122.422 221.614C120.89 222.866 118.668 223.536 117.251 224.817C117.136 224.934 115.795 224.934 115.527 224.963C114.914 225.08 114.301 225.225 113.765 225.458C112.654 225.895 111.85 226.565 110.892 227.176C108.594 228.632 106.449 230.234 104.304 231.836C103.844 232.185 103.308 232.098 103.001 232.36C100.703 234.137 97.6768 235.505 96.6425 238.097C96.5276 238.388 96.1829 238.621 96.4127 239C98.2897 237.748 100.205 236.525 102.044 235.243C102.81 234.719 103.997 234.632 104.763 234.107C105.031 233.933 106.602 232.651 107.023 233.176C107.33 233.554 107.177 234.224 106.755 234.748C105.836 235.855 104.993 236.961 103.882 237.981C106.104 237.253 107.56 235.971 108.747 234.457C110.011 232.797 111.62 231.399 113.803 230.351C116.523 229.04 119.549 228.196 122.269 226.914C123.073 226.536 123.724 225.982 124.605 225.72C125.065 225.779 125.716 225.866 126.176 225.779C126.291 225.837 126.406 225.924 126.521 225.982C126.329 226.361 125.984 226.74 125.64 227.06C123.993 228.574 122.384 230.118 120.622 231.574C120.507 231.69 120.392 231.778 120.315 231.894C119.549 232.302 118.898 232.768 118.362 233.35C116.638 234.544 114.684 235.534 113.229 236.961C112.271 237.893 112.501 238.592 114.033 238.825C116.408 239.175 118.668 238.884 120.622 237.748C122.231 236.845 123.954 236.408 125.946 236.379C127.785 236.35 129.355 235.855 130.773 234.923C131.998 234.107 133.684 233.729 134.756 232.739C136.135 231.486 137.591 230.263 138.127 228.662C138.357 227.963 139.008 227.526 139.545 227.002C140.157 226.419 141.536 226.244 142.341 225.895C143.528 225.342 143.758 224.381 143.95 223.42C144.18 222.051 145.137 221.148 146.325 220.274C147.129 219.692 147.933 219.663 148.661 220.362C150.5 222.196 153.105 223.158 155.709 224.148C157.242 224.73 158.697 225.429 159.808 226.594C160.996 227.817 162.068 229.098 163.179 230.38C163.945 231.283 164.481 232.797 165.631 233.409C167.393 234.34 168.542 235.127 169.691 236.525C170.266 237.253 170.955 237.922 172.066 238.68C171.759 236.088 171.108 233.874 168.542 232.331C167.508 231.69 167.239 230.846 166.971 229.797C169.806 230.525 172.066 231.69 174.173 233.059C175.284 233.787 176.394 234.661 177.658 235.272C177.927 236.146 179.344 236.088 179.918 236.758C179.65 236.466 179.612 235.855 179.42 235.505C179.076 235.156 178.923 234.836 178.769 234.573Z" fill="#28262C"/>
<path d="M112.727 264C106.816 264 100.164 261.113 106.018 260.291V260.291C113.728 259.229 131.775 258.387 147.72 257.846C163.841 257.305 177.858 257.044 181.187 256.182C184.516 255.3 177.332 253.796 179.26 252.834C181.012 251.892 192.226 251.491 199.936 251.01C207.645 250.509 211.851 249.928 212.727 248.404C213.778 246.86 211.325 244.415 220.086 244.274C229.022 244.134 248.997 246.319 258.284 245.758C267.571 245.217 266.169 241.949 272.301 241.107C278.434 240.285 292.101 241.889 303.14 241.769C308.181 241.723 312.673 241.314 316.868 240.708C324.193 239.652 331 244.993 331 252.394V252.394C331 258.804 325.804 264 319.394 264H112.727Z" fill="#77BFF7"/>
<path d="M282.61 238C288.912 238 296.198 241.762 290.004 242.921V242.921C282.328 244.331 264.358 245.448 248.483 246.166C232.433 246.884 218.476 247.23 215.161 248.374C211.847 249.544 218.999 251.539 217.08 252.816C215.336 254.066 204.17 254.598 196.494 255.237C188.818 255.902 184.631 256.673 183.759 258.695C182.712 260.743 185.155 263.988 176.432 264.174C167.534 264.36 147.646 261.461 138.4 262.206C129.154 262.924 130.549 267.26 124.443 268.377C118.337 269.468 104.73 267.34 93.7388 267.499C90.7008 267.536 87.8628 267.75 85.1695 268.09C75.3911 269.328 66 262.663 66 252.807V252.807C66 244.629 72.6293 238 80.8069 238H282.61Z" fill="#F8A87D"/>
<path d="M137 256.958L130.207 256.924V262.223H126.967V256.958H121.752L124.124 259.194L114.278 259.142V265H109.58V259.194H99.8311L101.963 257.422L96.9731 257.396V261.75H93.7335V257.431H87L91.302 253.856H89.1248L92.4317 250.754L90.6211 250.68L92.9928 248.371L91.8107 248.336L93.8607 246.603H92.8731L95.3645 244.185L97.9831 246.603H97.1077L98.851 248.336L97.6689 248.371L100.1 250.715L98.5442 250.75L101.477 253.709L99.9208 253.782L102.936 256.625L106.078 254.016H102.921L107.709 249.519L105.091 249.415L108.525 246.066L106.811 246.014L109.669 243.505L108.345 243.566L111.929 240L115.722 243.505H114.458L116.987 246.014L115.273 246.066L118.797 249.467L116.538 249.519L120.78 253.808L118.52 253.912L121.042 256.291L124.536 253.388H122.351L125.65 250.286L123.84 250.212L126.211 247.903L125.029 247.868L126.997 246.166H126.249L128.583 243.718L131.202 246.135H130.334L132.077 247.868L130.895 247.903L133.327 250.247L131.77 250.282L134.703 253.241L133.147 253.315L137 256.958Z" fill="#28262C"/>
<path d="M184 251.21L177.886 251.185V255H174.97V251.21H170.277L172.412 252.82L163.55 252.782V257H159.322V252.82H150.548L152.467 251.544L147.976 251.525V254.66H145.06V251.55H139L142.872 248.976H140.912L143.889 246.743L142.259 246.69L144.394 245.027L143.33 245.002L145.175 243.754H144.286L146.528 242.014L148.885 243.754H148.097L149.666 245.002L148.602 245.027L150.79 246.715L149.39 246.74L152.029 248.87L150.629 248.923L153.342 250.97L156.17 249.092H153.329L157.638 245.854L155.282 245.779L158.372 243.367L156.83 243.33L159.403 241.524L158.211 241.567L161.436 239L164.85 241.524H163.712L165.988 243.33L164.446 243.367L167.617 245.816L165.584 245.854L169.402 248.942L167.368 249.017L169.637 250.73L172.782 248.64H170.816L173.785 246.406L172.156 246.353L174.29 244.69L173.226 244.665L174.997 243.439H174.324L176.425 241.677L178.782 243.417H178L179.569 244.665L178.505 244.69L180.694 246.378L179.293 246.403L181.933 248.533L180.532 248.586L184 251.21Z" fill="#28262C"/>
</svg>
