<svg width="500" height="300" viewBox="0 0 500 300" fill="none" xmlns="http://www.w3.org/2000/svg">
<rect width="500" height="300" rx="10" fill="#7BDDBD" fill-opacity="0.2"/>
<g filter="url(#filter0_d_63_2)">
<path d="M281.662 179L280.312 145.75L269.912 147.1V139.5L300.862 142.35V143.05L289.512 144.55L288.162 179H281.662ZM327.972 165.1C327.972 167.3 327.522 169.3 326.622 171.1C325.722 172.867 324.539 174.383 323.072 175.65C321.606 176.917 320.022 177.9 318.322 178.6C316.622 179.267 314.972 179.6 313.372 179.6C311.772 179.6 310.122 179.267 308.422 178.6C306.722 177.9 305.122 176.917 303.622 175.65C302.156 174.383 300.956 172.867 300.022 171.1C299.122 169.3 298.672 167.3 298.672 165.1C298.672 162.9 299.122 160.9 300.022 159.1C300.956 157.3 302.156 155.767 303.622 154.5C305.122 153.2 306.722 152.217 308.422 151.55C310.122 150.85 311.772 150.5 313.372 150.5C314.972 150.5 316.622 150.85 318.322 151.55C320.022 152.217 321.606 153.2 323.072 154.5C324.539 155.767 325.722 157.3 326.622 159.1C327.522 160.9 327.972 162.9 327.972 165.1ZM314.872 176C316.639 176 317.989 175.367 318.922 174.1C319.856 172.8 320.322 170.467 320.322 167.1C320.322 164.1 319.856 161.65 318.922 159.75C318.022 157.85 316.922 156.467 315.622 155.6C314.322 154.7 313.072 154.25 311.872 154.25C310.706 154.25 309.706 154.517 308.872 155.05C308.039 155.583 307.406 156.5 306.972 157.8C306.539 159.067 306.322 160.833 306.322 163.1C306.322 165.133 306.589 166.95 307.122 168.55C307.689 170.15 308.406 171.517 309.272 172.65C310.139 173.75 311.056 174.583 312.022 175.15C313.022 175.717 313.972 176 314.872 176ZM363.828 175C362.395 176.333 361.045 177.45 359.778 178.35C358.511 179.217 357.395 179.65 356.428 179.65C355.595 179.65 354.895 179.25 354.328 178.45C353.795 177.617 353.445 176.2 353.278 174.2C352.611 175.233 351.711 176.167 350.578 177C349.445 177.8 348.228 178.433 346.928 178.9C345.628 179.367 344.395 179.6 343.228 179.6C341.195 179.6 339.611 179.233 338.478 178.5C337.345 177.767 336.528 176.7 336.028 175.3C335.528 173.867 335.195 172.083 335.028 169.95L333.728 151.15H342.278L341.478 169.55V170.15C341.478 171.617 341.778 172.683 342.378 173.35C343.011 174.017 344.128 174.35 345.728 174.35C346.661 174.35 347.811 174.1 349.178 173.6C350.545 173.1 351.845 172.267 353.078 171.1L351.728 151.15H360.228L359.528 170.35V171.7C359.528 172.9 359.628 173.767 359.828 174.3C360.061 174.8 360.578 175.05 361.378 175.05C361.645 175.05 361.961 175.017 362.328 174.95C362.728 174.883 363.161 174.8 363.628 174.7L363.828 175ZM370.721 179L368.921 151.15H377.721L377.571 156.1C378.337 155.1 379.271 154.183 380.371 153.35C381.471 152.483 382.654 151.8 383.921 151.3C385.221 150.767 386.521 150.5 387.821 150.5V157.85C387.154 157.483 386.404 157.217 385.571 157.05C384.771 156.85 383.937 156.75 383.071 156.75C382.037 156.75 381.021 156.883 380.021 157.15C379.021 157.383 378.187 157.733 377.521 158.2L376.871 179H370.721ZM412.03 160.55C411.164 159.683 410.064 158.817 408.73 157.95C407.397 157.083 406.03 156.333 404.63 155.7C403.264 155.033 402.064 154.617 401.03 154.45C400.797 154.383 400.564 154.35 400.33 154.35C400.097 154.35 399.864 154.35 399.63 154.35C398.597 154.35 397.747 154.533 397.08 154.9C396.414 155.267 396.08 155.733 396.08 156.3C396.08 156.833 396.414 157.367 397.08 157.9C397.747 158.4 398.747 158.983 400.08 159.65C401.447 160.317 402.947 161.067 404.58 161.9C406.214 162.7 407.83 163.583 409.43 164.55C411.03 165.517 412.43 166.533 413.63 167.6C414.83 168.667 415.63 169.8 416.03 171C416.33 171.833 416.48 172.617 416.48 173.35C416.48 175.283 415.497 176.817 413.53 177.95C411.564 179.05 408.647 179.6 404.78 179.6C401.747 179.6 398.93 178.767 396.33 177.1C393.73 175.433 391.58 173.283 389.88 170.65L390.28 170.15C392.347 171.75 394.547 173.017 396.88 173.95C399.214 174.85 401.497 175.3 403.73 175.3C405.23 175.3 406.397 175.1 407.23 174.7C408.097 174.3 408.53 173.8 408.53 173.2C408.53 173.067 408.497 172.9 408.43 172.7C408.097 171.767 407.297 170.867 406.03 170C404.764 169.1 403.264 168.167 401.53 167.2C399.83 166.2 398.08 165.1 396.28 163.9C394.514 162.667 392.93 161.267 391.53 159.7C390.764 158.767 390.38 157.817 390.38 156.85C390.38 155.783 390.764 154.767 391.53 153.8C392.297 152.833 393.38 152.05 394.78 151.45C396.18 150.817 397.814 150.5 399.68 150.5C401.947 150.5 404.097 150.683 406.13 151.05C408.164 151.417 409.98 151.9 411.58 152.5C413.214 153.067 414.497 153.7 415.43 154.4L412.03 160.55Z" fill="#28262C"/>
</g>
<path d="M169.955 235.128C170.436 236.253 171.878 237.033 171.718 238.47C170.396 238.158 169.314 237.752 168.754 236.721C168.233 235.753 167.512 234.847 166.951 233.91C166.03 232.349 165.549 230.6 164.308 229.132C163.306 227.945 163.186 226.664 163.026 225.321C162.986 225.071 162.906 224.728 163.306 224.665C163.667 224.603 164.107 225.009 164.588 225.602C165.549 226.852 166.551 228.913 166.831 229.35C168.033 231.255 169.114 233.161 169.955 235.128ZM348 235.503C347.76 235.066 347.559 234.597 347.439 234.129C345.156 232.786 342.913 231.443 340.39 230.35C339.188 229.819 338.066 229.194 337.025 228.507C337.025 228.382 336.985 228.257 336.825 228.132C335.623 227.07 334.381 226.04 333.18 224.978C332.298 223.822 331.057 222.854 329.695 222.073C327.532 220.824 325.529 219.512 323.727 218.013C321.363 216.045 318.56 215.233 315.155 215.514C313.312 215.67 311.95 214.983 311.189 213.765C310.108 212.047 308.145 210.767 306.183 209.705C304.38 208.737 301.696 207.831 300.455 206.426C299.934 205.863 299.213 205.395 298.812 204.739C297.571 202.803 295.368 201.928 292.924 201.147C291.883 200.835 291.122 200.21 290.481 199.554C289.76 198.836 288.999 198.243 288.198 197.556C287.437 196.931 287.196 195.963 286.475 195.244C285.634 194.401 284.593 193.683 283.511 193.027C281.789 191.965 280.067 190.903 278.625 189.622C277.583 188.685 276.662 188.092 275.14 188.81C273.898 189.404 272.697 190.06 271.615 190.809C271.134 191.153 270.654 191.496 270.253 191.871C269.893 192.215 269.612 192.902 269.172 193.183C266.969 194.62 264.285 195.619 262.082 197.056C261.361 197.524 260.52 197.368 260.039 196.681C258.597 194.682 256.554 193.089 254.552 191.465C254.111 191.09 253.59 190.778 253.07 190.528C251.387 189.779 250.065 188.717 247.902 188.935C247.822 188.873 247.782 188.842 247.702 188.779C244.978 186.874 242.695 184.656 240.212 182.595C239.611 182.095 239.211 181.44 238.65 180.909C237.648 179.94 236.206 179.472 234.804 178.941C232.161 178.004 229.838 176.598 227.514 175.255C224.07 173.288 221.026 171.07 218.983 168.072C218.021 166.698 216.619 166.667 215.057 167.853C212.334 169.915 209.85 172.163 207.487 174.475C206.085 175.849 204.483 177.036 202.68 178.066C202.28 178.285 201.919 178.535 201.519 178.785C199.436 179.597 197.673 180.752 196.272 182.252C196.191 182.345 196.151 182.439 196.151 182.533C194.429 183.72 192.867 184.906 191.585 186.343C189.502 188.654 187.379 190.965 185.457 193.339C183.414 195.869 180.45 197.712 177.806 199.773C176.044 201.147 174.041 202.397 171.838 203.396C170.516 203.989 169.274 203.896 167.993 203.177C167.432 202.865 166.831 202.522 166.23 202.24C166.23 202.084 166.15 201.928 165.91 201.803C164.147 200.866 162.105 199.929 160.462 198.805C158.74 197.587 157.018 196.369 155.295 195.151C154.134 194.339 152.612 192.714 150.809 192.902C150.088 192.996 148.446 193.37 148.085 193.933C147.765 194.432 147.605 194.963 147.284 195.463C146.563 196.587 145.602 197.556 144.32 198.274C141.316 200.054 138.913 202.365 136.189 204.364C133.225 206.519 129.58 207.862 126.335 209.767C125.614 209.892 125.134 210.579 124.373 210.673C122.851 210.861 121.409 211.423 120.087 212.11C117.884 213.297 117.363 215.421 115.521 216.826C115 217.201 114.559 217.638 113.998 217.982C113.558 218.263 112.917 218.45 112.516 218.762C111.595 219.356 110.674 219.918 109.713 220.48C107.91 221.573 106.108 222.385 104.105 223.197C100.38 224.759 96.935 226.508 94.732 229.444C93.3301 231.318 91.5276 232.973 89.9654 234.753C88.6837 236.19 87.6022 237.752 86 239.126C86.3204 239.251 86.4406 239.345 86.5207 239.313C89.4447 238.47 92.4489 238.751 95.4129 238.876C98.0165 238.97 99.859 237.97 101.822 236.721C103.544 235.628 105.747 234.66 107.67 233.848C108.431 233.504 109.472 233.348 110.193 232.973C110.874 232.63 111.275 231.943 111.916 231.537C113.318 230.662 114.199 229.506 115.08 228.288C115.481 227.695 116.322 227.414 117.203 227.289C119.206 227.039 120.487 226.102 121.369 224.697C122.37 223.135 124.052 221.979 125.815 220.949C126.536 220.511 127.337 219.856 128.178 219.637C129.38 219.325 130.942 219.45 132.183 219.293C135.388 218.919 138.072 217.451 140.355 215.702C142.798 213.796 145.161 211.891 146.603 209.33C146.884 208.799 147.845 208.175 148.686 207.675C150.889 206.426 152.972 205.051 152.531 202.521C152.411 201.803 152.692 201.085 152.892 200.366C153.493 200.242 154.013 199.96 154.134 199.429C154.134 199.398 154.134 199.367 154.134 199.336C154.574 198.899 154.895 199.055 156.056 199.648C156.096 199.679 156.136 199.679 156.176 199.711C156.978 200.366 157.899 200.897 158.86 201.366C162.505 203.771 166.23 206.051 170.676 207.581C173.28 208.487 175.082 210.049 175.483 212.391C175.683 213.672 176.564 214.796 177.366 215.889C177.806 216.514 177.886 217.825 178.968 217.982C179.248 218.013 179.609 218.044 179.809 218.2C179.969 218.325 180.009 218.513 180.049 218.7C180.41 220.012 181.772 220.636 183.053 221.417C187.139 223.885 190.023 227.882 194.83 229.569C197.233 230.412 199.236 231.786 201.238 233.129C204.723 235.441 208.368 238.095 212.614 239.501C213.215 239.688 214.056 240.219 214.497 239.657C214.897 239.157 214.336 238.533 213.776 238.095C212.814 237.377 211.853 236.659 210.852 236.003C209.97 235.441 209.61 234.691 209.329 233.848C209.009 232.848 209.41 232.255 210.251 231.474C211.292 230.537 211.693 229.444 212.173 228.257C212.454 227.508 213.015 226.852 213.896 226.414C214.857 225.946 216.019 225.915 216.94 225.415C219.183 224.197 220.425 221.292 220.585 219.262C220.745 217.138 221.026 215.015 221.146 212.891C221.186 212.297 221.466 211.673 222.187 211.392C222.668 211.173 223.269 211.11 223.789 211.017C225.672 210.642 224.951 209.268 225.271 208.237C225.111 208.706 226.353 208.3 226.433 208.237C227.394 207.8 228.235 206.8 229.437 206.738C230.559 206.675 231.28 207.581 231.88 208.206C232.922 209.299 234.043 210.33 235.485 211.142C238.57 212.922 240.933 215.171 241.934 218.107C242.135 218.669 242.655 219.637 242.976 220.168C244.257 222.229 245.259 224.384 246.701 226.383C246.901 226.695 248.704 229.007 249.705 229.069C250.025 229.1 250.226 229.038 250.226 228.726C250.146 227.57 248.984 226.883 248.263 225.977C248.103 225.759 247.902 224.915 247.582 224.166C246.46 221.355 245.099 218.637 243.296 216.014C242.815 215.327 242.735 214.39 242.215 213.64C241.293 212.297 239.691 211.36 238.369 210.298C235.766 208.175 233.603 205.988 234.164 202.803C234.684 202.678 234.925 203.052 235.285 203.271C237.728 204.614 240.292 205.895 243.016 206.863C244.298 207.3 245.419 207.612 246.581 208.268C248.263 209.237 249.585 210.486 251.227 211.485C252.749 212.391 254.351 213.234 255.353 214.546C256.234 215.733 257.716 216.576 258.878 217.576C259.919 218.481 260.279 219.668 260.84 220.761C261.121 221.324 261.441 221.854 261.962 222.323C263.404 223.697 263.284 225.571 264.085 227.164C264.525 228.07 264.605 229.194 265.407 230.006C266.208 230.818 266.889 231.755 267.409 232.692C267.93 233.629 268.13 234.785 269.172 235.441C269.612 235.722 270.093 235.972 270.534 236.253C270.814 236.846 271.335 237.408 271.935 238.002C272.216 235.659 270.734 233.567 269.452 231.568C267.73 228.882 267.449 225.915 266.808 222.979C267.65 222.979 268.21 223.291 268.691 223.603C271.535 225.29 274.619 226.789 276.462 229.288C276.862 229.819 277.583 230.1 278.264 230.318C279.866 230.818 281.148 231.537 282.069 232.692C282.67 233.442 283.431 233.848 284.433 234.129C285.634 234.472 286.756 234.972 287.958 235.347C289.44 235.784 290.922 235.815 292.364 235.284C292.844 235.128 292.684 234.535 292.003 234.316C290.922 233.941 289.88 233.504 288.759 233.223C287.196 232.817 285.915 232.099 284.993 231.162C283.551 229.631 281.629 228.601 279.706 227.539C277.503 226.321 275.661 224.79 274.539 222.885C273.658 221.417 272.296 220.668 270.453 220.199C269.252 219.887 268.01 219.606 266.969 219.075C262.242 215.764 258.597 211.61 253.67 208.424C250.987 206.675 248.143 204.895 244.778 203.74C242.175 202.865 239.531 201.991 237.728 200.117C237.688 200.085 237.648 200.054 237.608 200.023C237.568 199.992 237.568 199.96 237.528 199.929C237.288 199.679 237.008 199.461 236.727 199.305C236.687 199.273 236.687 199.273 236.647 199.242C235.606 198.43 234.364 197.774 232.922 197.431C231.4 197.025 229.077 197.962 228.155 199.305C228.075 199.429 228.075 199.617 227.955 199.711C226.193 200.991 225.031 202.646 223.429 204.052C221.546 205.676 219.263 205.957 216.9 206.957C215.178 207.706 214.216 209.33 212.894 210.455C211.292 211.86 209.85 213.359 209.209 215.202C209.009 215.858 208.408 216.358 207.767 216.795C206.606 217.669 205.284 218.325 203.842 218.887C203.321 219.075 202.76 219.293 202.44 219.637C200.838 221.23 198.314 221.698 196.312 222.823C195.47 223.291 194.789 223.229 193.988 222.542C192.867 221.573 191.385 220.917 190.744 219.574C190.383 218.856 190.183 218.45 190.383 218.2C191.745 217.982 193.027 217.669 194.309 217.201C194.87 217.013 194.709 216.514 194.309 216.295C196.191 213.828 198.034 211.516 198.755 208.83C199.476 206.144 199.276 203.334 200.157 200.648C200.597 199.273 201.238 198.055 202.841 197.118C204.323 196.275 205.124 194.87 206.205 193.714C206.566 193.339 206.566 192.839 206.526 192.34C206.325 190.185 206.606 187.655 209.009 186.281C210.531 185.375 211.733 184.157 212.414 182.751C213.135 181.283 212.934 179.722 214.336 178.472C215.618 177.348 216.66 176.13 217.02 174.631C217.18 174.006 217.781 173.569 218.382 173.288C219.704 172.663 222.147 175.287 222.988 175.849C225.752 177.723 228.796 179.409 231.8 181.034C232.962 181.658 234.284 182.158 235.525 182.72C237.328 183.501 238.409 185.063 239.731 186.249C240.332 186.812 240.292 187.218 239.291 187.186C236.687 187.093 234.604 188.217 232.321 188.967C231.68 189.185 231.039 189.435 230.759 190.185C232.081 190.06 233.282 189.997 234.484 189.841C235.926 189.622 237.288 190.028 238.65 190.341C240.132 190.684 241.614 190.684 243.136 190.809C246.38 191.09 250.106 191.684 252.309 193.651C254.552 195.65 256.474 197.837 258.237 200.085C259.759 201.991 261.401 203.865 263.003 205.707C263.244 205.988 263.604 206.457 264.085 206.269C264.565 206.082 264.285 205.614 264.205 205.27C264.125 204.864 263.965 204.489 264.045 203.989C266.488 204.395 268.531 205.332 270.093 206.675C273.938 210.017 277.383 213.609 280.908 217.138C281.789 218.013 282.19 218.95 282.59 219.918C283.031 220.949 283.592 221.917 284.553 222.729C285.995 223.947 286.756 225.477 287.917 226.82C288.198 227.133 288.358 227.476 288.999 227.476C289.279 226.977 289.199 226.321 288.919 226.008C287.557 224.478 287.557 222.635 286.916 220.949C286.676 220.293 286.596 219.887 286.796 219.606C287.437 219.668 288.078 219.699 288.759 219.762C290.922 220.574 292.964 221.573 295.248 222.229C296.85 222.666 298.252 223.322 299.413 224.291C300.775 225.415 302.377 226.258 304.02 227.039C304.46 227.258 304.58 227.882 304.821 228.32C305.582 229.725 305.862 231.224 306.183 232.723C306.383 233.66 306.703 234.566 307.785 235.597C307.424 233.317 306.823 231.287 306.783 229.069C308.946 230.006 311.229 230.412 312.671 232.036C313.352 232.786 314.634 233.129 315.636 233.629C316.957 234.254 318.359 234.722 319.721 235.16C321.243 235.659 322.845 235.972 324.648 236.003C324.408 235.316 323.647 235.128 323.086 234.878C318.479 233.004 314.514 230.475 310.829 227.632C309.707 226.758 308.666 225.79 307.584 224.853C305.582 223.135 303.739 221.292 301.256 219.918C299.093 218.7 297.611 216.951 295.808 215.452C293.605 213.609 290.841 212.266 288.518 210.548C285.674 208.424 282.27 206.957 278.945 205.332C277.063 204.395 276.582 202.709 276.021 201.147C275.54 199.836 275.54 198.493 276.061 197.212C276.622 195.838 276.782 194.464 276.782 193.058C276.782 192.621 276.822 192.215 277.303 192.027C277.784 191.84 278.144 192.246 278.545 192.465C281.509 194.089 283.151 196.556 285.234 198.774C285.955 199.554 286.636 200.335 286.796 201.335C286.916 201.959 287.517 202.334 288.238 202.615C289.64 203.177 291.002 203.74 292.404 204.271C293.765 204.801 294.847 205.489 295.648 206.519C297.691 209.361 300.415 211.579 304.54 212.766C306.503 213.328 308.145 214.64 309.507 215.983C309.908 216.389 310.068 216.92 309.547 217.295C308.746 217.857 308.746 218.762 307.945 219.325C307.424 219.668 307.825 220.23 308.466 220.137C308.906 220.074 309.427 219.543 309.747 219.325C311.229 218.325 312.311 217.825 314.314 217.763C316.236 217.732 317.919 218.2 319.681 218.794C324.488 220.48 327.772 223.479 331.177 226.414C332.859 227.882 334.461 229.475 336.865 230.35C337.626 230.631 337.946 231.162 338.146 231.755C338.507 232.723 339.268 233.504 340.069 234.316C340.349 234.223 340.67 234.16 340.99 234.098C340.79 233.254 339.989 232.598 339.949 231.786C340.51 231.755 340.83 232.067 341.151 232.255C343.474 233.473 345.557 234.691 348 235.503ZM194.509 236.253C194.149 235.597 193.748 235.003 192.867 234.472C192.506 233.91 191.906 233.41 191.024 233.004C187.459 231.287 183.694 229.881 180.089 228.257C178.727 227.632 177.686 226.664 176.645 225.759C175.523 224.79 174.321 224.134 172.919 223.447C169.274 221.636 165.669 219.574 162.505 217.263C162.385 216.607 161.624 216.108 160.823 215.983C160.783 215.983 160.783 215.983 160.743 215.983C160.022 214.89 158.66 213.953 157.258 213.796C156.337 213.703 155.576 214.046 154.935 214.484C153.413 215.514 151.931 216.67 150.328 217.638C148.686 218.638 146.924 219.793 145.121 220.574C143.399 221.323 141.236 221.105 139.393 221.074C137.831 221.042 136.63 221.48 135.588 222.354C133.986 223.697 131.663 224.416 130.181 225.79C130.061 225.915 128.659 225.915 128.378 225.946C127.737 226.071 127.096 226.227 126.536 226.477C125.374 226.945 124.533 227.664 123.532 228.32C121.128 229.881 118.885 231.599 116.642 233.317C116.161 233.692 115.601 233.598 115.28 233.879C112.877 235.784 109.713 237.252 108.631 240.032C108.511 240.344 108.15 240.594 108.391 241C110.353 239.657 112.356 238.345 114.279 236.971C115.08 236.409 116.322 236.315 117.123 235.753C117.403 235.566 119.045 234.191 119.486 234.753C119.806 235.16 119.646 235.878 119.206 236.44C118.244 237.627 117.363 238.814 116.202 239.907C118.525 239.126 120.047 237.752 121.288 236.128C122.61 234.347 124.293 232.848 126.576 231.724C129.42 230.318 132.584 229.413 135.428 228.038C136.269 227.632 136.95 227.039 137.871 226.758C138.352 226.82 139.033 226.914 139.514 226.82C139.634 226.883 139.754 226.977 139.874 227.039C139.674 227.445 139.313 227.851 138.953 228.195C137.23 229.819 135.548 231.474 133.706 233.036C133.585 233.161 133.465 233.254 133.385 233.379C132.584 233.817 131.903 234.316 131.342 234.941C129.54 236.221 127.497 237.283 125.975 238.814C124.974 239.813 125.214 240.563 126.816 240.813C129.299 241.187 131.663 240.875 133.706 239.657C135.388 238.689 137.19 238.22 139.273 238.189C141.196 238.158 142.838 237.627 144.32 236.627C145.602 235.753 147.364 235.347 148.486 234.285C149.928 232.942 151.45 231.63 152.011 229.912C152.251 229.163 152.932 228.694 153.493 228.132C154.134 227.508 155.576 227.32 156.417 226.945C157.658 226.352 157.899 225.321 158.099 224.291C158.339 222.823 159.341 221.854 160.582 220.917C161.424 220.293 162.265 220.262 163.026 221.011C164.948 222.979 167.672 224.009 170.396 225.071C171.998 225.696 173.52 226.446 174.682 227.695C175.924 229.007 177.045 230.381 178.207 231.755C179.008 232.723 179.569 234.347 180.77 235.003C182.613 236.003 183.814 236.846 185.016 238.345C185.617 239.126 186.338 239.844 187.499 240.656C187.179 237.877 186.498 235.503 183.814 233.848C182.733 233.161 182.453 232.255 182.172 231.131C185.136 231.911 187.499 233.161 189.702 234.629C190.864 235.409 192.026 236.346 193.348 237.002C193.628 237.939 195.11 237.877 195.711 238.595C195.43 238.283 195.39 237.627 195.19 237.252C194.83 236.877 194.669 236.534 194.509 236.253Z" fill="#28262C"/>
<g filter="url(#filter1_d_63_2)">
<path d="M86.5083 69.5H100.308L98.9583 114.575C98.8583 118.475 98.3333 121.525 97.3833 123.725C96.4833 125.875 95.3333 127.375 93.9333 128.225C92.5833 129.075 91.1583 129.5 89.6583 129.5C87.9083 129.5 85.8333 128.95 83.4333 127.85C81.0833 126.7 78.7333 125.2 76.3833 123.35C74.0833 121.5 72.0833 119.5 70.3833 117.35L70.7583 116.6C72.8083 117.55 74.8833 118.325 76.9833 118.925C79.0833 119.525 81.0083 119.975 82.7583 120.275C84.5583 120.525 85.9083 120.65 86.8083 120.65C87.6583 120.65 88.3083 120.3 88.7583 119.6C89.2083 118.9 89.4333 117.475 89.4333 115.325C89.4333 114.925 89.4333 114.5 89.4333 114.05C89.4333 113.6 89.4083 113.125 89.3583 112.625L86.5083 69.5ZM118.357 128.75L115.582 69.5H129.232L129.082 75.2L156.082 68.75V80.9L129.007 78.275L128.557 97.25L152.257 91.7V103.625L128.482 100.25L128.032 118.325L157.582 121.475V122.225L118.357 128.75ZM217.016 128L214.841 84.125L198.116 122.3H197.591L180.791 84.125L173.966 129.05H172.841L168.716 69.5H182.516L200.741 99.8L214.691 69.5H226.916L225.791 128H217.016ZM289.781 128L287.606 84.125L270.881 122.3H270.356L253.556 84.125L246.731 129.05H245.606L241.481 69.5L255.281 69.5L273.506 99.8L287.456 69.5H299.681L298.556 128H289.781ZM355.12 128.825L346.27 109.925L316.57 115.1L308.77 128.825H307.645L328.12 69.575L339.97 67.775L363.97 127.85L355.12 128.825ZM334.045 83.825L322.42 104.6L345.37 108.125L334.045 83.825Z" fill="#28262C"/>
</g>
<path d="M425 232.098L415.353 232.047V239.89H410.753V232.098H403.348L406.716 235.407L392.735 235.33V244H386.063V235.407H372.22L375.248 232.785L368.162 232.746V239.191H363.562V232.797H354L360.109 227.507H357.017L361.713 222.916L359.142 222.807L362.51 219.389L360.831 219.338L363.742 216.773H362.34L365.878 213.194L369.596 216.773H368.353L370.828 219.338L369.15 219.389L372.603 222.858L370.393 222.909L374.557 227.289L372.348 227.398L376.629 231.605L381.091 227.744H376.608L383.407 221.088L379.689 220.934L384.565 215.977L382.132 215.901L386.191 212.188L384.31 212.277L389.399 207L394.785 212.188H392.99L396.581 215.901L394.148 215.977L399.152 221.011L395.943 221.088L401.967 227.437L398.759 227.59L402.339 231.111L407.3 226.815H404.198L408.883 222.223L406.312 222.114L409.68 218.696L408.002 218.645L410.796 216.125H409.733L413.048 212.502L416.766 216.08H415.534L418.009 218.645L416.331 218.696L419.784 222.166L417.574 222.217L421.738 226.597L419.529 226.706L425 232.098Z" fill="#28262C"/>
<path d="M159.958 284C152.114 284 142.303 279.911 150.044 278.641C150.461 278.572 150.905 278.505 151.375 278.437C162.704 276.843 189.226 275.581 212.659 274.769C236.348 273.957 256.948 273.566 261.84 272.273C266.733 270.95 256.176 268.695 259.008 267.251C261.583 265.838 278.063 265.237 289.393 264.515C300.722 263.763 306.902 262.891 308.19 260.606C309.735 258.291 306.13 254.622 319.005 254.412C332.137 254.201 361.492 257.479 375.139 256.637C388.786 255.825 386.726 250.924 395.739 249.661C404.751 248.428 424.836 250.833 441.058 250.653C448.281 250.586 454.739 250 460.772 249.13C471.763 247.543 482 255.528 482 266.633V266.633C482 276.224 474.224 284 464.633 284L159.958 284Z" fill="#77BFF7"/>
<path d="M415.707 246C422.188 246 432.46 249.169 426.092 250.369C424.959 250.582 423.543 250.79 421.796 250.992C409.193 252.423 379.689 253.556 353.622 254.285C327.269 255.013 304.354 255.364 298.911 256.524C293.469 257.712 305.213 259.736 302.062 261.031C299.198 262.299 280.865 262.839 268.261 263.487C255.658 264.161 248.783 264.944 247.351 266.995C245.632 269.072 249.642 272.365 235.32 272.554C220.711 272.742 188.057 269.801 172.875 270.557C157.693 271.285 159.985 275.684 149.959 276.817C139.934 277.924 117.591 275.765 99.5449 275.927C89.5545 276.001 80.8809 276.796 72.7952 277.907C62.9568 279.258 54 271.88 54 261.95V261.95C54 253.141 61.1408 246 69.9495 246H415.707Z" fill="#F8A87D"/>
<path d="M135 261.098L125.353 261.047V268.89H120.753V261.098H113.348L116.716 264.407L102.735 264.33V273H96.0631V264.407H82.2201L85.2479 261.785L78.1618 261.746V268.191H73.5616V261.797H64L70.1088 256.507H67.0172L71.713 251.916L69.142 251.807L72.5098 248.389L70.8312 248.338L73.7422 245.773H72.3398L75.8776 242.194L79.596 245.773H78.353L80.8284 248.338L79.1498 248.389L82.6026 251.858L80.3928 251.909L84.5574 256.289L82.3476 256.398L86.6291 260.605L91.0911 256.744H86.6078L93.4072 250.088L89.6888 249.934L94.5652 244.977L92.1323 244.901L96.1906 241.188L94.3102 241.277L99.3991 236L104.785 241.188H102.99L106.581 244.901L104.148 244.977L109.152 250.011L105.943 250.088L111.967 256.437L108.759 256.59L112.339 260.111L117.3 255.815H114.198L118.883 251.223L116.312 251.114L119.68 247.696L118.002 247.645L120.796 245.125H119.733L123.048 241.502L126.766 245.08H125.534L128.009 247.645L126.331 247.696L129.784 251.166L127.574 251.217L131.738 255.597L129.529 255.706L135 261.098Z" fill="#28262C"/>
<defs>
<filter id="filter0_d_63_2" x="265.912" y="139.5" width="154.568" height="48.1499" filterUnits="userSpaceOnUse" color-interpolation-filters="sRGB">
<feFlood flood-opacity="0" result="BackgroundImageFix"/>
<feColorMatrix in="SourceAlpha" type="matrix" values="0 0 0 0 0 0 0 0 0 0 0 0 0 0 0 0 0 0 127 0" result="hardAlpha"/>
<feOffset dy="4"/>
<feGaussianBlur stdDeviation="2"/>
<feComposite in2="hardAlpha" operator="out"/>
<feColorMatrix type="matrix" values="0 0 0 0 0 0 0 0 0 0 0 0 0 0 0 0 0 0 0.25 0"/>
<feBlend mode="normal" in2="BackgroundImageFix" result="effect1_dropShadow_63_2"/>
<feBlend mode="normal" in="SourceGraphic" in2="effect1_dropShadow_63_2" result="shape"/>
</filter>
<filter id="filter1_d_63_2" x="66.3833" y="67.7749" width="301.587" height="69.7251" filterUnits="userSpaceOnUse" color-interpolation-filters="sRGB">
<feFlood flood-opacity="0" result="BackgroundImageFix"/>
<feColorMatrix in="SourceAlpha" type="matrix" values="0 0 0 0 0 0 0 0 0 0 0 0 0 0 0 0 0 0 127 0" result="hardAlpha"/>
<feOffset dy="4"/>
<feGaussianBlur stdDeviation="2"/>
<feComposite in2="hardAlpha" operator="out"/>
<feColorMatrix type="matrix" values="0 0 0 0 0 0 0 0 0 0 0 0 0 0 0 0 0 0 0.25 0"/>
<feBlend mode="normal" in2="BackgroundImageFix" result="effect1_dropShadow_63_2"/>
<feBlend mode="normal" in="SourceGraphic" in2="effect1_dropShadow_63_2" result="shape"/>
</filter>
</defs>
</svg>
