<svg id="visual" viewBox="0 0 900 600" width="900" height="600" xmlns="http://www.w3.org/2000/svg" xmlns:xlink="http://www.w3.org/1999/xlink" version="1.1"><rect x="0" y="0" width="900" height="600" fill="#fcfcfc"></rect><defs><linearGradient id="grad1_0" x1="33.3%" y1="100%" x2="100%" y2="0%"><stop offset="20%" stop-color="#fcfcfc" stop-opacity="1"></stop><stop offset="80%" stop-color="#fcfcfc" stop-opacity="1"></stop></linearGradient></defs><defs><linearGradient id="grad2_0" x1="0%" y1="100%" x2="66.7%" y2="0%"><stop offset="20%" stop-color="#fcfcfc" stop-opacity="1"></stop><stop offset="80%" stop-color="#fcfcfc" stop-opacity="1"></stop></linearGradient></defs><g transform="translate(900, 600)"><path d="M-108.2 0C-102 -12.3 -95.8 -24.5 -91.5 -37.9C-87.1 -51.3 -84.6 -65.7 -76.5 -76.5C-68.4 -87.2 -54.6 -94.2 -40.9 -98.9C-27.3 -103.5 -13.6 -105.8 0 -108.2L0 0Z" fill="#7bddbd"></path></g><g transform="translate(0, 0)"><path d="M108.2 0C108.5 15.9 108.7 31.8 99.9 41.4C91.1 51 73.2 54.2 62.2 62.2C51.2 70.2 47.1 83 37.9 91.5C28.7 99.9 14.3 104 0 108.2L0 0Z" fill="#7bddbd"></path></g></svg>