<svg id="visual" viewBox="0 0 900 600" width="900" height="600" xmlns="http://www.w3.org/2000/svg" xmlns:xlink="http://www.w3.org/1999/xlink" version="1.1"><rect x="0" y="0" width="900" height="600" fill="#fcfcfc"></rect><path d="M0 531L25 534C50 537 100 543 150 544.3C200 545.7 250 542.3 300 542.3C350 542.3 400 545.7 450 546.8C500 548 550 547 600 544C650 541 700 536 750 533.3C800 530.7 850 530.3 875 530.2L900 530L900 601L875 601C850 601 800 601 750 601C700 601 650 601 600 601C550 601 500 601 450 601C400 601 350 601 300 601C250 601 200 601 150 601C100 601 50 601 25 601L0 601Z" fill="#7bddbd" stroke-linecap="round" stroke-linejoin="miter"></path></svg>