<svg id="visual" viewBox="0 0 900 600" width="900" height="600" xmlns="http://www.w3.org/2000/svg" xmlns:xlink="http://www.w3.org/1999/xlink" version="1.1"><rect x="0" y="0" width="900" height="600" fill="#eee"></rect><path d="M0 535L21.5 536.2C43 537.3 86 539.7 128.8 537.8C171.7 536 214.3 530 257.2 531.2C300 532.3 343 540.7 385.8 541.8C428.7 543 471.3 537 514.2 530.7C557 524.3 600 517.7 642.8 517.2C685.7 516.7 728.3 522.3 771.2 527.2C814 532 857 536 878.5 538L900 540L900 601L878.5 601C857 601 814 601 771.2 601C728.3 601 685.7 601 642.8 601C600 601 557 601 514.2 601C471.3 601 428.7 601 385.8 601C343 601 300 601 257.2 601C214.3 601 171.7 601 128.8 601C86 601 43 601 21.5 601L0 601Z" fill="#f8a87d"></path><path d="M0 550L21.5 548.8C43 547.7 86 545.3 128.8 549.7C171.7 554 214.3 565 257.2 566.5C300 568 343 560 385.8 554.7C428.7 549.3 471.3 546.7 514.2 545.3C557 544 600 544 642.8 548.3C685.7 552.7 728.3 561.3 771.2 563.3C814 565.3 857 560.7 878.5 558.3L900 556L900 601L878.5 601C857 601 814 601 771.2 601C728.3 601 685.7 601 642.8 601C600 601 557 601 514.2 601C471.3 601 428.7 601 385.8 601C343 601 300 601 257.2 601C214.3 601 171.7 601 128.8 601C86 601 43 601 21.5 601L0 601Z" fill="#7bddbd"></path></svg>