<svg width="50" height="50" viewBox="0 0 50 50" fill="none" xmlns="http://www.w3.org/2000/svg">
<path d="M48.3847 0.942627H1.6158C0.724958 0.942627 0 1.66758 0 2.55843V9.74014C0 10.631 0.724958 11.3559 1.6158 11.3559H48.3842C49.2745 11.3559 50 10.631 50 9.74014V2.55843C50.0005 1.66758 49.2756 0.942627 48.3847 0.942627Z" fill="#EEEEEE"/>
<path d="M48.3847 19.7937H1.6158C0.724958 19.7937 0 20.5187 0 21.4095V28.5912C0 29.4821 0.724958 30.207 1.6158 30.207H48.3842C49.2745 30.207 50 29.4821 50 28.5912V21.4095C50.0005 20.5187 49.2756 19.7937 48.3847 19.7937Z" fill="#EEEEEE"/>
<path d="M48.3847 38.6448H1.6158C0.724958 38.6448 0 39.3697 0 40.2606V47.4423C0 48.3331 0.724958 49.0581 1.6158 49.0581H48.3842C49.2745 49.0581 50 48.3331 50 47.4423V40.2606C50.0005 39.3692 49.2756 38.6448 48.3847 38.6448Z" fill="#EEEEEE"/>
</svg>
